<?xml version="1.0" encoding="UTF-8"?>
<svg width="170px" height="202px" viewBox="0 0 170 202" version="1.1" xmlns="http://www.w3.org/2000/svg" xmlns:xlink="http://www.w3.org/1999/xlink">
    <!-- Generator: Sketch 43.2 (39069) - http://www.bohemiancoding.com/sketch -->
    <title>artists</title>
    <desc>Created with Sketch.</desc>
    <defs></defs>
    <g id="Page-1" stroke="none" stroke-width="1" fill="none" fill-rule="evenodd">
        <g id="artists" fill-rule="nonzero" fill="#000000">
            <g id="brush" transform="translate(5.000000, 0.000000)">
                <path d="M150.5,9.8 C154.6,12.8 127.2,57 102.9,94.4 L108.6,101 C112.7,94.7 116.8,88.3 120.9,81.9 C132.9,63 142.3,47.7 148.6,36.3 C158.9,17.8 163,8.5 155.5,2.9 C148,-2.7 140.3,3.9 125.5,19 C116.4,28.3 104.4,41.6 89.7,58.5 C86.8,61.8 83.9,65.2 81.1,68.5 L86.6,74.9 C114.7,42.4 146.6,6.9 150.5,9.8 Z" id="Shape"></path>
                <path d="M68,146.5 C65.8,149.5 62.7,151.4 59.4,152.3 C59.7,152.5 60.1,152.8 60.4,153 C62.1,154.2 64.1,156.2 65.8,158.8 C69.2,157.2 72.2,154.7 74.6,151.5 C75.7,150 79.4,144.6 84.6,136.9 L79,130.3 C73.2,139.1 69,145.2 68,146.5 Z" id="Shape"></path>
                <path d="M39.8,137.7 C39.7,134.3 40.7,130.8 42.9,127.8 C44.1,126.1 50.5,118.3 59.6,107.3 L54.1,100.8 C44.6,112.2 37.7,120.7 36.2,122.7 L36.2,122.7 C33.8,125.9 32.4,129.5 31.8,133.1 C34.4,134 36.8,135.2 38.6,136.6 C39,137 39.4,137.4 39.8,137.7 Z" id="Shape"></path>
                <path d="M123.9,45.4 C116,58.5 106.4,73.5 97.2,87.7 L102.9,94.4 C127.2,57 154.6,12.8 150.5,9.8 C146.6,6.9 114.7,42.4 86.6,75.3 L92.1,81.8 C102.8,69.2 114,56.4 123.9,45.4 Z" id="Shape"></path>
                <path d="M61.3,141.5 C58.9,144.7 54.3,145.4 51.1,143 C47.9,140.6 47.2,136 49.6,132.8 C51.5,130.2 57.2,123.2 65,113.8 L59.5,107.4 C50.4,118.3 44.1,126.2 42.8,127.9 C40.6,130.9 39.6,134.4 39.7,137.8 C43.4,140.9 46,144.5 47.4,148.5 C51.1,148.5 55.1,149.6 59.3,152.5 C62.6,151.6 65.7,149.7 67.9,146.7 C68.9,145.3 73.1,139.3 79,130.5 L73.4,123.9 C67.5,132.7 63.1,139.2 61.3,141.5 Z" id="Shape"></path>
                <path d="M42.7,157.6 C42.1,157.2 41.6,156.9 41,156.5 C40.8,156.3 40.6,156.1 40.4,156 C40.4,156.9 40.3,157.8 40.1,158.8 C41.1,158.2 41.9,157.9 42.7,157.6 Z" id="Shape"></path>
                <path d="M58.7,180.2 C48.6,193.7 14.5,193.6 13.7,193 C12.8,192.4 3,159.7 13.1,146.2 C19.5,137.6 28.1,140.4 32,142.5 C31.3,139.5 31.2,136.4 31.7,133.3 C24,130.7 13.7,131.3 6.3,141.2 C0.7,148.7 -1.1,160.2 0.9,175.5 C1.7,181.6 4.1,196.3 8.6,199.7 C10.5,201.1 14.1,201.6 18.4,201.6 C22.8,201.6 27.9,201.1 32.4,200.4 C48.5,198.1 59.5,193 65.3,185.2 C70.2,178.6 71.3,171.1 68.5,163.9 C67.8,162 66.8,160.3 65.8,158.8 C63,160.1 60,160.9 56.9,161.1 C60.2,164.4 65,171.7 58.7,180.2 Z" id="Shape"></path>
                <path d="M60.5,153 C60.2,152.7 59.8,152.5 59.5,152.3 C55.1,153.5 50.1,152.7 46.2,149.7 C42.2,146.7 40.1,142.3 39.9,137.7 C39.5,137.4 39.1,137 38.7,136.7 C36.9,135.3 34.5,134.1 31.9,133.2 C31.4,136.3 31.5,139.4 32.2,142.4 C32.8,142.8 33.4,143.1 33.7,143.4 C36,145.1 40.7,149.2 40.6,155.9 C40.8,156.1 41,156.3 41.2,156.4 C41.7,156.8 42.3,157.2 42.9,157.5 C49,155.3 53.3,158 55.6,159.7 C56,160 56.5,160.5 57.1,161.1 C60.2,160.9 63.2,160.1 66,158.8 C64.2,156.3 62.1,154.3 60.5,153 Z" id="Shape"></path>
                <path d="M39.8,137.7 C40,142.3 42.1,146.8 46.1,149.7 C50.1,152.7 55,153.5 59.4,152.3 C55.2,149.5 51.2,148.4 47.5,148.3 C46.1,144.4 43.5,140.7 39.8,137.7 Z" id="Shape"></path>
                <path d="M13.1,146.1 C3,159.6 12.8,192.3 13.7,192.9 C14.6,193.5 48.6,193.6 58.7,180.1 C65,171.7 60.2,164.3 57,161.1 C56.5,161.1 56,161.2 55.4,161.2 C51,161.2 46.6,160 42.7,157.6 C41.9,157.9 41,158.3 40.1,158.7 C40.3,157.7 40.4,156.8 40.4,155.9 C36,152.4 33.1,147.6 32,142.4 C28.1,140.3 19.5,137.5 13.1,146.1 Z M28.6,150.1 C32.8,153.2 32.2,155.9 32,157 C31.3,160.2 32.6,163.4 35.2,165.4 C37.8,167.3 41.3,167.6 44.2,166.1 C47.4,164.4 48.8,165.2 50.6,166.5 C51.8,167.4 55.5,170.7 52.1,175.2 C47,182 29.1,184.4 19.9,184.8 C17.6,175.8 14.9,158 19.9,151.2 C21.3,149.3 23,148.6 24.4,148.6 C26.2,148.6 27.9,149.6 28.6,150.1 Z" id="Shape"></path>
                <path d="M57,161.1 C56.4,160.5 55.9,160 55.5,159.7 C53.2,158 48.9,155.4 42.8,157.5 C46.7,159.9 51.1,161.1 55.5,161.1 C56,161.2 56.5,161.1 57,161.1 Z" id="Shape"></path>
                <path d="M40.5,155.9 C40.6,149.2 35.9,145.1 33.6,143.4 C33.2,143.1 32.7,142.8 32.1,142.4 C33.2,147.6 36.1,152.4 40.5,155.9 Z" id="Shape"></path>
                <path d="M119.2,176.8 C118.9,176.6 118.6,176.4 118.4,176.1 C118.6,176.4 118.9,176.6 119.2,176.8 Z" id="Shape"></path>
                <path d="M149.6,149.5 C149.8,149.9 150,150.2 150.2,150.6 C150.1,150.3 149.9,149.9 149.6,149.5 Z" id="Shape"></path>
                <path d="M118.3,176.2 L117.7,175.6 C117.9,175.8 118.1,176 118.3,176.2 Z" id="Shape"></path>
                <path d="M149.3,149 C149.4,149.2 149.6,149.4 149.7,149.6 C149.5,149.3 149.4,149.2 149.3,149 Z" id="Shape"></path>
            </g>
            <g id="pencil" transform="translate(0.000000, 4.000000)">
                <path d="M36.3,57.2 C34.8,58.4 33,59 31.2,59 C28.8,59 26.5,58 24.8,56.1 C21.9,52.7 22.2,47.6 25.5,44.6 L8.4,24.5 L27.1,8.5 L45.2,29.7 C47.8,29.5 50.5,30.5 52.3,32.6 C54.1,34.7 54.7,37.5 54,40.1 L80.5,71.2 C82.3,69.1 84.2,66.9 86,64.8 L33.5,3.1 C32.1,1.4 30,0.4 27.8,0.2 C25.6,1.05748743e-14 23.4,0.7 21.7,2.2 L3,18.1 C-0.5,21.1 -0.9,26.4 2.1,29.9 L59.1,96.9 C60.8,94.8 62.6,92.6 64.5,90.4 L36.3,57.2 Z" id="Shape"></path>
                <path d="M123.4,159.6 L94.6,125.8 C92.9,128.4 91.3,130.8 89.8,133 L122.5,171.4 C122.6,171.5 122.7,171.5 122.7,171.6 C121.4,170.2 120.6,168.5 120.5,166.6 C120.3,163.9 121.4,161.3 123.4,159.6 Z" id="Shape"></path>
                <path d="M142.2,143.6 L142.2,143.6 C144.3,141.8 147.1,141.2 149.7,141.9 C151.6,142.4 153.1,143.5 154.3,145 C154.2,144.9 154.1,144.7 154,144.6 L113.6,97.1 C112,99.6 110.4,102 108.8,104.4 L142.2,143.6 Z" id="Shape"></path>
                <path d="M102.2,83.8 L97.1,77.8 C95.2,80 93.4,82.1 91.6,84.2 L97.5,91.1 C99,88.7 100.6,86.2 102.2,83.8 Z" id="Shape"></path>
                <path d="M70,109.8 L78.5,119.8 C80,117.5 81.6,115.1 83.3,112.6 L75.4,103.3 C73.6,105.5 71.8,107.7 70,109.8 Z" id="Shape"></path>
                <path d="M103.1,97.7 L108.7,104.3 C110.3,101.9 111.9,99.5 113.5,97 L107.8,90.4 C106.3,92.9 104.7,95.3 103.1,97.7 Z" id="Shape"></path>
                <path d="M86.1,77.7 C87.9,75.6 89.7,73.4 91.6,71.3 L86.1,64.9 C84.3,67.1 82.4,69.2 80.6,71.3 L86.1,77.7 Z" id="Shape"></path>
                <path d="M89,119.1 C87.3,121.7 85.7,124.1 84.2,126.3 L89.8,132.9 C91.3,130.7 92.9,128.3 94.6,125.7 L89,119.1 Z" id="Shape"></path>
                <path d="M70,96.8 L64.5,90.3 C62.6,92.6 60.8,94.7 59.1,96.8 L64.6,103.3 C66.3,101.3 68.1,99.1 70,96.8 Z" id="Shape"></path>
                <path d="M97.5,91.1 L103.2,97.7 C104.8,95.3 106.4,92.9 108,90.4 L102.3,83.7 C100.6,86.2 99,88.7 97.5,91.1 Z" id="Shape"></path>
                <path d="M97.1,77.7 L91.6,71.2 C89.7,73.4 87.9,75.5 86.1,77.6 L91.6,84.1 C93.4,82 95.2,79.9 97.1,77.7 Z" id="Shape"></path>
                <path d="M78.5,119.7 L84.1,126.3 C85.6,124.1 87.2,121.7 88.9,119.1 L83.3,112.5 C81.7,115.1 80.1,117.5 78.5,119.7 Z" id="Shape"></path>
                <path d="M75.5,103.2 L70,96.8 C68.1,99.1 66.3,101.3 64.6,103.3 L70.1,109.7 C71.8,107.7 73.6,105.5 75.5,103.2 Z" id="Shape"></path>
                <path d="M48.7,46.7 L75.1,77.7 C76.9,75.6 78.7,73.4 80.6,71.2 L54.1,40.1 C53.7,41.7 52.8,43.3 51.4,44.4 L48.7,46.7 Z" id="Shape"></path>
                <path d="M31.9,39.1 L20.2,25.4 L26.2,20.3 L37.9,34 L40.6,31.7 C42,30.5 43.6,29.9 45.3,29.8 L27.2,8.6 L8.5,24.6 L25.6,44.7 L25.9,44.4 L31.9,39.1 Z" id="Shape"></path>
                <path d="M129.8,154.1 L99.4,118.4 C97.7,120.9 96.1,123.3 94.6,125.6 L123.4,159.4 L123.4,159.4 L129.8,154.1 Z" id="Shape"></path>
                <path d="M135.8,149 L142.2,143.6 L108.8,104.4 C107.2,106.9 105.6,109.3 104,111.7 L135.8,149 Z" id="Shape"></path>
                <path d="M42.7,51.8 L36.6,57 C36.5,57.1 36.4,57.1 36.3,57.2 L64.5,90.3 C66.3,88.2 68.1,86 69.9,83.8 L42.7,51.8 Z" id="Shape"></path>
                <path d="M75.5,103.2 L83.4,112.5 C84.9,110.2 86.6,107.8 88.2,105.2 L81,96.7 C79.1,99 77.2,101.2 75.5,103.2 Z" id="Shape"></path>
                <path d="M97.5,91.1 L91.6,84.2 C89.7,86.4 87.9,88.5 86.1,90.7 L92.7,98.5 C94.3,96 95.9,93.6 97.5,91.1 Z" id="Shape"></path>
                <path d="M80.6,84.2 C82.4,82.1 84.2,79.9 86.1,77.7 L80.6,71.2 C78.7,73.4 76.9,75.5 75.1,77.7 L80.6,84.2 Z" id="Shape"></path>
                <path d="M93.8,111.9 C92.1,114.4 90.5,116.8 89,119.1 L94.6,125.7 C96.1,123.4 97.8,121 99.4,118.5 L93.8,111.9 Z" id="Shape"></path>
                <path d="M104,111.6 C105.6,109.2 107.2,106.8 108.8,104.3 L103.2,97.7 C101.6,100.2 100,102.6 98.4,105 L104,111.6 Z" id="Shape"></path>
                <path d="M69.9,83.8 C68,86 66.2,88.2 64.5,90.3 L70,96.8 C71.8,94.7 73.6,92.5 75.4,90.3 L69.9,83.8 Z" id="Shape"></path>
                <path d="M88.2,105.3 C86.5,107.8 84.9,110.2 83.4,112.6 L89,119.2 C90.5,116.9 92.2,114.5 93.8,112 L88.2,105.3 Z" id="Shape"></path>
                <path d="M86.1,90.6 C87.9,88.5 89.7,86.3 91.6,84.1 L86.1,77.6 C84.2,79.8 82.4,81.9 80.6,84.1 L86.1,90.6 Z" id="Shape"></path>
                <path d="M92.7,98.4 L98.3,105 C99.9,102.6 101.5,100.2 103.1,97.7 L97.4,91.1 C95.9,93.6 94.3,96 92.7,98.4 Z" id="Shape"></path>
                <path d="M80.9,96.7 L75.4,90.3 C73.5,92.5 71.7,94.7 70,96.8 L75.5,103.2 C77.2,101.2 79.1,99 80.9,96.7 Z" id="Shape"></path>
                <path d="M168.9,183 L155.4,147 C155.4,146.9 155.3,146.8 155.2,146.6 C155.7,147.8 156,149.2 155.9,150.6 C155.7,152.8 154.7,154.9 153,156.3 L150.7,158.3 L161.1,186 L136.3,170.6 L134.3,172.3 C132.7,173.6 130.8,174.3 128.9,174.3 C127.3,174.3 125.6,173.8 124.2,172.8 C124.3,172.9 124.4,172.9 124.5,173 L156.8,193.1 C158.2,193.9 159.7,194.4 161.2,194.4 C163.1,194.4 165,193.8 166.5,192.5 C169.2,190.2 170.2,186.4 168.9,183 Z" id="Shape"></path>
                <path d="M134.3,172.3 L136.3,170.6 L128.8,166 L123.4,159.6 C121.4,161.3 120.3,163.9 120.5,166.6 C120.6,168.5 121.4,170.2 122.7,171.6 C122.9,171.8 123.1,172 123.3,172.2 C123.6,172.4 123.8,172.7 124.1,172.9 C125.5,173.8 127.1,174.4 128.8,174.4 C130.8,174.3 132.7,173.6 134.3,172.3 Z" id="Shape"></path>
                <path d="M149.7,141.9 C147.1,141.2 144.3,141.9 142.2,143.6 L142.2,143.6 L147.6,150 L150.7,158.3 L153,156.3 C154.7,154.9 155.7,152.8 155.9,150.6 C156,149.2 155.7,147.9 155.2,146.6 C155,146.2 154.8,145.8 154.6,145.5 C154.5,145.3 154.4,145.1 154.2,144.9 C153.1,143.5 151.6,142.4 149.7,141.9 Z" id="Shape"></path>
                <polygon id="Shape" points="142.2 143.6 135.8 149 135.8 149 129.8 154.1 129.8 154.1 123.4 159.6 123.4 159.6 128.8 165.9 147.6 150"></polygon>
                <polygon id="Shape" points="143.9 164.1 144.6 165.9 143 164.9 136.3 170.6 161.1 186 150.7 158.3 143 164.9"></polygon>
                <polygon id="Shape" points="128.8 165.9 136.3 170.6 143 164.9 143 164.9 143 164.9 150.7 158.3 147.6 150"></polygon>
                <rect id="Rectangle-path" transform="translate(42.960260, 46.123055) rotate(-40.412994) translate(-42.960260, -46.123055) " x="39.0102149" y="41.923007" width="7.90009026" height="8.40009597"></rect>
                <rect id="Rectangle-path" transform="translate(37.599310, 39.795955) rotate(-40.412994) translate(-37.599310, -39.795955) " x="33.6492649" y="35.595907" width="7.90009026" height="8.40009597"></rect>
                <path d="M24.8,56.1 C26.5,58 28.8,59 31.2,59 C33,59 34.8,58.4 36.3,57.2 L25.5,44.5 C22.3,47.6 21.9,52.7 24.8,56.1 Z" id="Shape"></path>
                <path d="M52.3,32.7 C50.5,30.6 47.8,29.6 45.2,29.8 L54,40.1 C54.7,37.6 54.2,34.8 52.3,32.7 Z" id="Shape"></path>
                <path d="M42.7,51.8 L37.3,45.4 L31.2,50.6 L37.3,45.4 L31.9,39 L25.8,44.2 C25.7,44.3 25.6,44.4 25.5,44.5 L36.3,57.2 C36.4,57.1 36.5,57.1 36.6,57 L42.7,51.8 Z" id="Shape"></path>
                <path d="M37.9,34 L43.3,40.4 L46,38.1 L43.3,40.4 L48.7,46.8 L51.4,44.5 C52.8,43.3 53.7,41.8 54.1,40.2 L45.3,29.9 C43.6,30 42,30.7 40.6,31.8 L37.9,34 Z" id="Shape"></path>
                <polygon id="Shape" points="129.8 154.1 135.8 149 135.8 149"></polygon>
            </g>
        </g>
    </g>
</svg>