<?xml version="1.0" encoding="utf-8"?>
<!-- Generator: Adobe Illustrator 21.1.0, SVG Export Plug-In . SVG Version: 6.00 Build 0)  -->
<svg version="1.1" id="Layer_1" xmlns="http://www.w3.org/2000/svg" xmlns:xlink="http://www.w3.org/1999/xlink" x="0px" y="0px"
	 viewBox="0 0 318.8 303.6" style="enable-background:new 0 0 318.8 303.6;" xml:space="preserve">
<g>
	<g>
		<path d="M-1488.1-109.9c-2.6,0-4.4-0.6-11.4-6.1c-3.1-2.5-7.9-6.6-13-11.8c-13.1-13.5-19.7-26-19.7-37.1c0-9.5,4.2-17.3,11.7-22
			c5.3-3.3,11.3-4.4,15.2-4.4c7.1,0,13.1,1.9,17.9,5.5c3.9-3.2,9.2-5.5,16.4-5.5c3.9,0,10,1.2,15.2,4.4c7.6,4.7,11.7,12.5,11.7,22
			c0,11.2-6.6,23.6-19.7,37.1c-5.1,5.2-9.9,9.3-13,11.8C-1483.7-110.5-1485.6-109.9-1488.1-109.9z M-1484.5-125.8L-1484.5-125.8
			L-1484.5-125.8z M-1505.3-174.7c-0.9,0-3.9,0.4-6.4,1.9c-1.8,1.1-3.8,3-3.8,7.8c0,6.1,4.8,14.6,13.6,24c5.2,5.5,10.4,10,13.9,12.7
			c9-7,27.3-24.5,27.3-36.6c0-4.8-2-6.7-3.8-7.8c-2.5-1.6-5.6-1.9-6.4-1.9c-3.7,0-6.4,0.9-8.6,5.7c-1.4,2.9-4.3,4.8-7.6,4.8
			s-6.2-1.9-7.6-4.8C-1495.9-171.5-1498.2-174.7-1505.3-174.7z"/>
	</g>
	<g>
		<path d="M-1398.4-137.5c-2.6,0-4.4-0.6-11.4-6.1c-3.1-2.5-7.9-6.6-13-11.8c-13.1-13.5-19.7-26-19.7-37.1c0-9.5,4.2-17.3,11.7-22
			c5.3-3.3,11.3-4.4,15.2-4.4c7.1,0,13.1,1.9,17.9,5.5c3.9-3.2,9.2-5.5,16.4-5.5c3.9,0,10,1.2,15.2,4.4c7.6,4.7,11.7,12.5,11.7,22
			c0,11.2-6.6,23.6-19.7,37.1c-5.1,5.2-9.9,9.3-13,11.8C-1394-138.1-1395.8-137.5-1398.4-137.5z M-1394.7-153.4L-1394.7-153.4
			L-1394.7-153.4z M-1415.5-202.3c-0.9,0-3.9,0.4-6.4,1.9c-1.8,1.1-3.8,3-3.8,7.8c0,6.1,4.8,14.6,13.6,24c5.2,5.5,10.4,10,13.9,12.7
			c9-7,27.3-24.5,27.3-36.6c0-4.8-2-6.7-3.8-7.8c-2.5-1.6-5.6-1.9-6.4-1.9c-3.7,0-6.4,0.9-8.6,5.7c-1.4,2.9-4.3,4.8-7.6,4.8
			s-6.2-1.9-7.6-4.8C-1406.1-199.1-1408.5-202.3-1415.5-202.3z"/>
	</g>
	<g>
		<line x1="-1452.7" y1="-167.3" x2="-1452.7" y2="-284.9"/>
		<path d="M-1452.7-158.9c-4.6,0-8.4-3.7-8.4-8.4v-117.6c0-4.6,3.7-8.4,8.4-8.4s8.4,3.7,8.4,8.4v117.6
			C-1444.3-162.7-1448-158.9-1452.7-158.9z"/>
	</g>
	<g>
		<line x1="-1362.6" y1="-195.8" x2="-1362.6" y2="-313.4"/>
		<path d="M-1362.6-187.4c-4.6,0-8.4-3.7-8.4-8.4v-117.6c0-4.6,3.7-8.4,8.4-8.4s8.4,3.7,8.4,8.4v117.6
			C-1354.3-191.2-1358-187.4-1362.6-187.4z"/>
	</g>
	<g>
		<line x1="-1451.9" y1="-285.3" x2="-1362.6" y2="-314"/>
		<path d="M-1451.9-276.9c-3.5,0-6.8-2.3-8-5.8c-1.4-4.4,1-9.1,5.4-10.5l89.3-28.7c4.4-1.4,9.1,1,10.5,5.4c1.4,4.4-1,9.1-5.4,10.5
			l-89.3,28.7C-1450.2-277.1-1451.1-276.9-1451.9-276.9z"/>
	</g>
	<g>
		<line x1="-1451.9" y1="-248.7" x2="-1362.6" y2="-277.4"/>
		<path d="M-1451.9-240.3c-3.5,0-6.8-2.3-8-5.8c-1.4-4.4,1-9.1,5.4-10.5l89.3-28.7c4.4-1.4,9.1,1,10.5,5.4c1.4,4.4-1,9.1-5.4,10.5
			l-89.3,28.7C-1450.2-240.5-1451.1-240.3-1451.9-240.3z"/>
	</g>
</g>
<g>
	<g>
		<path d="M233.5,56.8c4.1,3-23.3,47.2-47.6,84.6l5.7,6.6c4.1-6.3,8.2-12.7,12.3-19.1c12-18.9,21.4-34.2,27.7-45.6
			c10.3-18.5,14.4-27.8,6.9-33.4c-7.5-5.6-15.2,1-30,16.1c-9.1,9.3-21.1,22.6-35.8,39.5c-2.9,3.3-5.8,6.7-8.6,10l5.5,6.4
			C197.7,89.4,229.6,53.9,233.5,56.8z"/>
	</g>
	<g>
		<path d="M151,193.5c-2.2,3-5.3,4.9-8.6,5.8c0.3,0.2,0.7,0.5,1,0.7c1.7,1.2,3.7,3.2,5.4,5.8c3.4-1.6,6.4-4.1,8.8-7.3
			c1.1-1.5,4.8-6.9,10-14.6l-5.6-6.6C156.2,186.1,152,192.2,151,193.5z"/>
	</g>
	<g>
		<path d="M122.8,184.7c-0.1-3.4,0.9-6.9,3.1-9.9c1.2-1.7,7.6-9.5,16.7-20.5l-5.5-6.5c-9.5,11.4-16.4,19.9-17.9,21.9v0
			c-2.4,3.2-3.8,6.8-4.4,10.4c2.6,0.9,5,2.1,6.8,3.5C122,184,122.4,184.4,122.8,184.7z"/>
	</g>
	<g>
		<path d="M206.9,92.4c-7.9,13.1-17.5,28.1-26.7,42.3l5.7,6.7c24.3-37.4,51.7-81.6,47.6-84.6c-3.9-2.9-35.8,32.6-63.9,65.5l5.5,6.5
			C185.8,116.2,197,103.4,206.9,92.4z"/>
	</g>
	<g>
		<path d="M144.3,188.5c-2.4,3.2-7,3.9-10.2,1.5c-3.2-2.4-3.9-7-1.5-10.2c1.9-2.6,7.6-9.6,15.4-19l-5.5-6.4
			c-9.1,10.9-15.4,18.8-16.7,20.5c-2.2,3-3.2,6.5-3.1,9.9c3.7,3.1,6.3,6.7,7.7,10.7c3.7,0,7.7,1.1,11.9,4c3.3-0.9,6.4-2.8,8.6-5.8
			c1-1.4,5.2-7.4,11.1-16.2l-5.6-6.6C150.5,179.7,146.1,186.2,144.3,188.5z"/>
	</g>
	<g>
		<path d="M125.7,204.6c-0.6-0.4-1.1-0.7-1.7-1.1c-0.2-0.2-0.4-0.4-0.6-0.5c0,0.9-0.1,1.8-0.3,2.8
			C124.1,205.2,124.9,204.9,125.7,204.6z"/>
	</g>
	<g>
		<path d="M141.7,227.2c-10.1,13.5-44.2,13.4-45,12.8c-0.9-0.6-10.7-33.3-0.6-46.8c6.4-8.6,15-5.8,18.9-3.7c-0.7-3-0.8-6.1-0.3-9.2
			c-7.7-2.6-18-2-25.4,7.9c-5.6,7.5-7.4,19-5.4,34.3c0.8,6.1,3.2,20.8,7.7,24.2c1.9,1.4,5.5,1.9,9.8,1.9c4.4,0,9.5-0.5,14-1.2
			c16.1-2.3,27.1-7.4,32.9-15.2c4.9-6.6,6-14.1,3.2-21.3c-0.7-1.9-1.7-3.6-2.7-5.1c-2.8,1.3-5.8,2.1-8.9,2.3
			C143.2,211.4,148,218.7,141.7,227.2z"/>
	</g>
	<g>
		<path d="M143.5,200c-0.3-0.3-0.7-0.5-1-0.7c-4.4,1.2-9.4,0.4-13.3-2.6c-4-3-6.1-7.4-6.3-12c-0.4-0.3-0.8-0.7-1.2-1
			c-1.8-1.4-4.2-2.6-6.8-3.5c-0.5,3.1-0.4,6.2,0.3,9.2c0.6,0.4,1.2,0.7,1.5,1c2.3,1.7,7,5.8,6.9,12.5c0.2,0.2,0.4,0.4,0.6,0.5
			c0.5,0.4,1.1,0.8,1.7,1.1c6.1-2.2,10.4,0.5,12.7,2.2c0.4,0.3,0.9,0.8,1.5,1.4c3.1-0.2,6.1-1,8.9-2.3
			C147.2,203.3,145.1,201.3,143.5,200z"/>
	</g>
	<g>
		<path d="M122.8,184.7c0.2,4.6,2.3,9.1,6.3,12c4,3,8.9,3.8,13.3,2.6c-4.2-2.8-8.2-3.9-11.9-4C129.1,191.4,126.5,187.7,122.8,184.7z
			"/>
	</g>
	<g>
		<path d="M96.1,193.1c-10.1,13.5-0.3,46.2,0.6,46.8c0.9,0.6,34.9,0.7,45-12.8c6.3-8.4,1.5-15.8-1.7-19c-0.5,0-1,0.1-1.6,0.1
			c-4.4,0-8.8-1.2-12.7-3.6c-0.8,0.3-1.7,0.7-2.6,1.1c0.2-1,0.3-1.9,0.3-2.8c-4.4-3.5-7.3-8.3-8.4-13.5
			C111.1,187.3,102.5,184.5,96.1,193.1z M111.6,197.1c4.2,3.1,3.6,5.8,3.4,6.9c-0.7,3.2,0.6,6.4,3.2,8.4c2.6,1.9,6.1,2.2,9,0.7
			c3.2-1.7,4.6-0.9,6.4,0.4c1.2,0.9,4.9,4.2,1.5,8.7c-5.1,6.8-23,9.2-32.2,9.6c-2.3-9-5-26.8,0-33.6c1.4-1.9,3.1-2.6,4.5-2.6
			C109.2,195.6,110.9,196.6,111.6,197.1z"/>
	</g>
	<g>
		<path d="M140,208.1c-0.6-0.6-1.1-1.1-1.5-1.4c-2.3-1.7-6.6-4.3-12.7-2.2c3.9,2.4,8.3,3.6,12.7,3.6
			C139,208.2,139.5,208.1,140,208.1z"/>
	</g>
	<g>
		<path d="M123.5,202.9c0.1-6.7-4.6-10.8-6.9-12.5c-0.4-0.3-0.9-0.6-1.5-1C116.2,194.6,119.1,199.4,123.5,202.9z"/>
	</g>
	<g>
		<path d="M114.3,108.2c-1.5,1.2-3.3,1.8-5.1,1.8c-2.4,0-4.7-1-6.4-2.9c-2.9-3.4-2.6-8.5,0.7-11.5L86.4,75.5l18.7-16l18.1,21.2
			c2.6-0.2,5.3,0.8,7.1,2.9c1.8,2.1,2.4,4.9,1.7,7.5l26.5,31.1c1.8-2.1,3.7-4.3,5.5-6.4l-52.5-61.7c-1.4-1.7-3.5-2.7-5.7-2.9
			c-2.2-0.2-4.4,0.5-6.1,2L81,69.1c-3.5,3-3.9,8.3-0.9,11.8l57,67c1.7-2.1,3.5-4.3,5.4-6.5L114.3,108.2z"/>
	</g>
	<g>
		<path d="M201.4,210.6l-28.8-33.8c-1.7,2.6-3.3,5-4.8,7.2l32.7,38.4c0.1,0.1,0.2,0.1,0.2,0.2c-1.3-1.4-2.1-3.1-2.2-5
			C198.3,214.9,199.4,212.3,201.4,210.6z"/>
	</g>
	<g>
		<path d="M202.2,223.8c-0.3-0.2-0.6-0.4-0.8-0.7C201.6,223.4,201.9,223.6,202.2,223.8z"/>
	</g>
	<g>
		<path d="M220.2,194.6L220.2,194.6c2.1-1.8,4.9-2.4,7.5-1.7c1.9,0.5,3.4,1.6,4.6,3.1c-0.1-0.1-0.2-0.3-0.3-0.4l-40.4-47.5
			c-1.6,2.5-3.2,4.9-4.8,7.3L220.2,194.6z"/>
	</g>
	<g>
		<path d="M232.6,196.5c0.2,0.4,0.4,0.7,0.6,1.1C233.1,197.3,232.9,196.9,232.6,196.5z"/>
	</g>
	<g>
		<path d="M180.2,134.8l-5.1-6c-1.9,2.2-3.7,4.3-5.5,6.4l5.9,6.9C177,139.7,178.6,137.2,180.2,134.8z"/>
	</g>
	<g>
		<path d="M148,160.8l8.5,10c1.5-2.3,3.1-4.7,4.8-7.2l-7.9-9.3C151.6,156.5,149.8,158.7,148,160.8z"/>
	</g>
	<g>
		<path d="M181.1,148.7l5.6,6.6c1.6-2.4,3.2-4.8,4.8-7.3l-5.7-6.6C184.3,143.9,182.7,146.3,181.1,148.7z"/>
	</g>
	<g>
		<path d="M164.1,128.7c1.8-2.1,3.6-4.3,5.5-6.4l-5.5-6.4c-1.8,2.2-3.7,4.3-5.5,6.4L164.1,128.7z"/>
	</g>
	<g>
		<path d="M167,170.1c-1.7,2.6-3.3,5-4.8,7.2l5.6,6.6c1.5-2.2,3.1-4.6,4.8-7.2L167,170.1z"/>
	</g>
	<g>
		<path d="M148,147.8l-5.5-6.5c-1.9,2.3-3.7,4.4-5.4,6.5l5.5,6.5C144.3,152.3,146.1,150.1,148,147.8z"/>
	</g>
	<g>
		<path d="M175.5,142.1l5.7,6.6c1.6-2.4,3.2-4.8,4.8-7.3l-5.7-6.7C178.6,137.2,177,139.7,175.5,142.1z"/>
	</g>
	<g>
		<path d="M175.1,128.7l-5.5-6.5c-1.9,2.2-3.7,4.3-5.5,6.4l5.5,6.5C171.4,133,173.2,130.9,175.1,128.7z"/>
	</g>
	<g>
		<path d="M156.5,170.7l5.6,6.6c1.5-2.2,3.1-4.6,4.8-7.2l-5.6-6.6C159.7,166.1,158.1,168.5,156.5,170.7z"/>
	</g>
	<g>
		<path d="M153.5,154.2l-5.5-6.4c-1.9,2.3-3.7,4.5-5.4,6.5l5.5,6.4C149.8,158.7,151.6,156.5,153.5,154.2z"/>
	</g>
	<g>
		<path d="M126.7,97.7l26.4,31c1.8-2.1,3.6-4.3,5.5-6.5l-26.5-31.1c-0.4,1.6-1.3,3.2-2.7,4.3L126.7,97.7z"/>
	</g>
	<g>
		<path d="M109.9,90.1L98.2,76.4l6-5.1L115.9,85l2.7-2.3c1.4-1.2,3-1.8,4.7-1.9l-18.1-21.2l-18.7,16l17.1,20.1
			c0.1-0.1,0.2-0.2,0.3-0.3L109.9,90.1z"/>
	</g>
	<g>
		<path d="M207.8,205.1l-30.4-35.7c-1.7,2.5-3.3,4.9-4.8,7.2l28.8,33.8c0,0,0,0,0,0L207.8,205.1z"/>
	</g>
	<g>
		<path d="M213.8,200l6.4-5.4l-33.4-39.2c-1.6,2.5-3.2,4.9-4.8,7.3L213.8,200z"/>
	</g>
	<g>
		<path d="M120.7,102.8l-6.1,5.2c-0.1,0.1-0.2,0.1-0.3,0.2l28.2,33.1c1.8-2.1,3.6-4.3,5.4-6.5L120.7,102.8z"/>
	</g>
	<g>
		<path d="M153.5,154.2l7.9,9.3c1.5-2.3,3.2-4.7,4.8-7.3l-7.2-8.5C157.1,150,155.2,152.2,153.5,154.2z"/>
	</g>
	<g>
		<path d="M175.5,142.1l-5.9-6.9c-1.9,2.2-3.7,4.3-5.5,6.5l6.6,7.8C172.3,147,173.9,144.6,175.5,142.1z"/>
	</g>
	<g>
		<path d="M158.6,135.2c1.8-2.1,3.6-4.3,5.5-6.5l-5.5-6.5c-1.9,2.2-3.7,4.3-5.5,6.5L158.6,135.2z"/>
	</g>
	<g>
		<path d="M171.8,162.9c-1.7,2.5-3.3,4.9-4.8,7.2l5.6,6.6c1.5-2.3,3.2-4.7,4.8-7.2L171.8,162.9z"/>
	</g>
	<g>
		<path d="M182,162.6c1.6-2.4,3.2-4.8,4.8-7.3l-5.6-6.6c-1.6,2.5-3.2,4.9-4.8,7.3L182,162.6z"/>
	</g>
	<g>
		<path d="M147.9,134.8c-1.9,2.2-3.7,4.4-5.4,6.5l5.5,6.5c1.8-2.1,3.6-4.3,5.4-6.5L147.9,134.8z"/>
	</g>
	<g>
		<path d="M166.2,156.3c-1.7,2.5-3.3,4.9-4.8,7.3l5.6,6.6c1.5-2.3,3.2-4.7,4.8-7.2L166.2,156.3z"/>
	</g>
	<g>
		<path d="M164.1,141.6c1.8-2.1,3.6-4.3,5.5-6.5l-5.5-6.5c-1.9,2.2-3.7,4.3-5.5,6.5L164.1,141.6z"/>
	</g>
	<g>
		<path d="M170.7,149.4l5.6,6.6c1.6-2.4,3.2-4.8,4.8-7.3l-5.7-6.6C173.9,144.6,172.3,147,170.7,149.4z"/>
	</g>
	<g>
		<path d="M158.9,147.7l-5.5-6.4c-1.9,2.2-3.7,4.4-5.4,6.5l5.5,6.4C155.2,152.2,157.1,150,158.9,147.7z"/>
	</g>
	<g>
		<path d="M201.3,223.2c-0.2-0.2-0.4-0.4-0.6-0.6C200.9,222.8,201.1,223,201.3,223.2z"/>
	</g>
	<g>
		<path d="M232.3,196c0.1,0.2,0.3,0.4,0.4,0.6C232.5,196.3,232.4,196.2,232.3,196z"/>
	</g>
	<g>
		<path d="M246.9,234l-13.5-36c0-0.1-0.1-0.2-0.2-0.4c0.5,1.2,0.8,2.6,0.7,4c-0.2,2.2-1.2,4.3-2.9,5.7l-2.3,2l10.4,27.7l-24.8-15.4
			l-2,1.7c-1.6,1.3-3.5,2-5.4,2c-1.6,0-3.3-0.5-4.7-1.5c0.1,0.1,0.2,0.1,0.3,0.2l32.3,20.1c1.4,0.8,2.9,1.3,4.4,1.3
			c1.9,0,3.8-0.6,5.3-1.9C247.2,241.2,248.2,237.4,246.9,234z"/>
	</g>
	<g>
		<polygon points="207.8,205.1 213.8,200 213.8,200 207.8,205.1 		"/>
	</g>
	<g>
		<path d="M212.3,223.3l2-1.7l-7.5-4.6l-5.4-6.4c-2,1.7-3.1,4.3-2.9,7c0.1,1.9,0.9,3.6,2.2,5c0.2,0.2,0.4,0.4,0.6,0.6
			c0.3,0.2,0.5,0.5,0.8,0.7c1.4,0.9,3,1.5,4.7,1.5C208.8,225.3,210.7,224.6,212.3,223.3z"/>
	</g>
	<g>
		<path d="M227.7,192.9c-2.6-0.7-5.4,0-7.5,1.7l0,0l5.4,6.4l3.1,8.3l2.3-2c1.7-1.4,2.7-3.5,2.9-5.7c0.1-1.4-0.2-2.7-0.7-4
			c-0.2-0.4-0.4-0.8-0.6-1.1c-0.1-0.2-0.2-0.4-0.4-0.6C231.1,194.5,229.6,193.4,227.7,192.9z"/>
	</g>
	<g>
		<polygon points="220.2,194.6 213.8,200 213.8,200 207.8,205.1 207.8,205.1 201.4,210.6 201.4,210.6 206.8,216.9 225.6,201 		"/>
	</g>
	<g>
		<polygon points="221.9,215.1 222.6,216.9 221,215.9 214.3,221.6 239.1,237 228.7,209.3 221,215.9 		"/>
	</g>
	<g>
		<polygon points="206.8,216.9 214.3,221.6 221,215.9 221,215.9 221,215.9 228.7,209.3 225.6,201 		"/>
	</g>
	<g>
		<rect x="117" y="92.9" transform="matrix(0.7614 -0.6483 0.6483 0.7614 -34.081 101.603)" width="7.9" height="8.4"/>
	</g>
	<g>
		<rect x="111.6" y="86.6" transform="matrix(0.7614 -0.6483 0.6483 0.7614 -31.2461 96.5719)" width="7.9" height="8.4"/>
	</g>
	<g>
		<path d="M102.8,107.1c1.7,1.9,4,2.9,6.4,2.9c1.8,0,3.6-0.6,5.1-1.8l-10.8-12.7C100.3,98.6,99.9,103.7,102.8,107.1z"/>
	</g>
	<g>
		<path d="M130.3,83.7c-1.8-2.1-4.5-3.1-7.1-2.9l8.8,10.3C132.7,88.6,132.2,85.8,130.3,83.7z"/>
	</g>
	<g>
		<path d="M120.7,102.8l-5.4-6.4l-6.1,5.2l6.1-5.2l-5.4-6.4l-6.1,5.2c-0.1,0.1-0.2,0.2-0.3,0.3l10.8,12.7c0.1-0.1,0.2-0.1,0.3-0.2
			L120.7,102.8z"/>
	</g>
	<g>
		<path d="M115.9,85l5.4,6.4l2.7-2.3l-2.7,2.3l5.4,6.4l2.7-2.3c1.4-1.2,2.3-2.7,2.7-4.3l-8.8-10.3c-1.7,0.1-3.3,0.8-4.7,1.9
			L115.9,85z"/>
	</g>
</g>
<g>
	<g>
		<path d="M-893.8-139.6h-30.2l-19.5-172.5h106.8l-9.7,83.5h8.4l9.6-82.5c0.3-2.4-0.5-4.7-2.1-6.5s-3.9-2.8-6.2-2.8h-106.8
			c-2.4,0-4.7,1-6.2,2.8c-1.6,1.8-2.3,4.1-2.1,6.5l19.5,172.5c0.5,4.2,4.1,7.4,8.3,7.4h39.6C-887.9-133.5-891.1-136.3-893.8-139.6z"
			/>
	</g>
	<g>
		<path d="M-916.5-148L-934-303.7h88.1l-8.7,75.1h8.4l9.7-83.5h-106.8l19.5,172.5h30.2c-2.1-2.5-3.8-5.4-5.1-8.4H-916.5z"/>
	</g>
	<g>
		<path d="M-777.9-220.3c13.2,0,24.4,8.7,28.3,20.6h0.6c3,0,5.9,0.6,8.5,1.7c-3.5-17.4-18.9-30.6-37.4-30.6h-60l-1,8.4H-777.9z"/>
	</g>
	<g>
		<path d="M-901.5-198c2.6-1.1,5.5-1.7,8.6-1.7h0.5c3.9-11.9,15.1-20.6,28.3-20.6h8.5l1-8.4h-9.4C-882.6-228.6-898-215.4-901.5-198z
			"/>
	</g>
	<g>
		<polygon points="-847.2,-220.3 -838.8,-220.3 -837.9,-228.6 -846.3,-228.6 		"/>
	</g>
	<g>
		<polygon points="-855.7,-220.3 -847.2,-220.3 -846.3,-228.6 -854.7,-228.6 		"/>
	</g>
	<g>
		<path d="M-777.9-211.9c8.5,0,15.9,5,19.3,12.2h9c-3.9-11.9-15.1-20.6-28.3-20.6h-60.9l-1,8.4H-777.9z"/>
	</g>
	<g>
		<path d="M-892.4-199.7h9c3.4-7.2,10.8-12.2,19.3-12.2h7.5l1-8.4h-8.5C-877.3-220.3-888.5-211.6-892.4-199.7z"/>
	</g>
	<g>
		<polygon points="-839.8,-211.9 -838.8,-220.3 -847.2,-220.3 -848.2,-211.9 		"/>
	</g>
	<g>
		<polygon points="-856.6,-211.9 -848.2,-211.9 -847.2,-220.3 -855.7,-220.3 		"/>
	</g>
	<g>
		<path d="M-749.4-155.1c-3.6,12.3-15.1,21.4-28.5,21.4h-72.8c-1.5,1.6-3.6,2.5-5.9,2.5h-27.7c5.9,3.7,12.8,5.8,20.2,5.8h86.2
			c18.8,0,34.4-13.6,37.5-31.5c-2.6,1.1-5.6,1.7-8.6,1.7H-749.4z"/>
	</g>
	<g>
		<path d="M-892.9-155.1c-3.1,0-6-0.6-8.7-1.8c0.5,3.1,1.5,6.2,2.7,9h9.5c-1.4-2.2-2.5-4.6-3.2-7.2H-892.9z"/>
	</g>
	<g>
		<path d="M-850.7-133.7h-13.5c-6.6,0-12.7-2.2-17.6-5.8h-12c2.7,3.3,5.9,6.1,9.5,8.4h27.7C-854.3-131.2-852.2-132.2-850.7-133.7z"
			/>
	</g>
	<g>
		<path d="M-889.4-148h-9.5c1.4,3,3.1,5.8,5.1,8.4h12C-884.8-141.9-887.4-144.7-889.4-148z"/>
	</g>
	<g>
		<path d="M-777.9-142.1h-70l-0.4,3.5c-0.2,1.9-1.1,3.6-2.4,4.9h72.8c13.5,0,24.9-9.1,28.5-21.4h-8.8
			C-761.5-147.5-769.1-142.1-777.9-142.1z"/>
	</g>
	<g>
		<path d="M-883.8-155.1h-8.8c0.8,2.6,1.9,5,3.2,7.2h10.6C-880.9-150-882.7-152.4-883.8-155.1z"/>
	</g>
	<g>
		<path d="M-847.9-142.1h-8.4l-0.3,2.5h-25.1c4.9,3.7,11,5.8,17.6,5.8h13.5c1.3-1.3,2.1-3,2.4-4.9L-847.9-142.1z"/>
	</g>
	<g>
		<path d="M-856.3-142.1h-7.8c-5.7,0-10.8-2.2-14.7-5.8h-10.6c2,3.3,4.6,6.1,7.7,8.4h25.1L-856.3-142.1z"/>
	</g>
	<g>
		<path d="M-740.5-198c0.5,2.4,0.8,4.9,0.8,7.5c0,0.8-0.2,1.6-0.4,2.4c3,2.5,4.9,6.3,4.9,10.5v0.3c0,4.3-2,8.2-5.1,10.7
			c0.4,1,0.6,2,0.6,3.1c0,2.3-0.2,4.5-0.6,6.6c7.9-3.4,13.5-11.2,13.5-20.4v-0.3C-726.9-186.8-732.5-194.7-740.5-198z"/>
	</g>
	<g>
		<path d="M-901.6-166.6c-3.1-2.5-5-6.4-5-10.6v-0.3c0-4.2,1.9-7.9,4.8-10.4c-0.2-0.8-0.4-1.6-0.4-2.5c0-2.6,0.3-5,0.7-7.5
			c-7.9,3.4-13.5,11.2-13.5,20.4v0.3c0,9.1,5.5,16.9,13.4,20.3c-0.4-2.1-0.6-4.3-0.6-6.6C-902.3-164.6-902-165.7-901.6-166.6z"/>
	</g>
	<g>
		<path d="M-841.3-198.9h83.1c-0.1-0.3-0.3-0.6-0.4-0.8h-82.6L-841.3-198.9z"/>
	</g>
	<g>
		<path d="M-858.2-198.9l0.1-0.8h-25.4c-0.1,0.3-0.3,0.6-0.4,0.8H-858.2z"/>
	</g>
	<g>
		<polygon points="-849.6,-199.7 -849.7,-198.9 -841.3,-198.9 -841.2,-199.7 		"/>
	</g>
	<g>
		<polygon points="-849.7,-198.9 -849.6,-199.7 -858.1,-199.7 -858.2,-198.9 		"/>
	</g>
	<g>
		<path d="M-749.6-199.7c0.9,2.7,1.4,5.5,1.4,8.4c3,0.2,5.8,1.3,8,3.2c0.2-0.8,0.4-1.6,0.4-2.4c0-2.6-0.3-5.1-0.8-7.5
			c-2.6-1.1-5.5-1.7-8.5-1.7H-749.6z"/>
	</g>
	<g>
		<path d="M-901.8-188c2.2-1.9,5-3.1,8-3.3c0.1-2.9,0.6-5.8,1.4-8.4h-0.5c-3,0-5.9,0.6-8.6,1.7c-0.5,2.4-0.7,4.9-0.7,7.5
			C-902.3-189.6-902.1-188.8-901.8-188z"/>
	</g>
	<g>
		<path d="M-758.2-198.9h-83.1l-0.9,7.5h44.7h48.5c0.3,0,0.5,0,0.8,0c-0.1-2.9-0.6-5.7-1.4-8.4h-9
			C-758.5-199.4-758.3-199.1-758.2-198.9z"/>
	</g>
	<g>
		<path d="M-892.9-191.3h33.9l0.9-7.5h-25.7c0.1-0.3,0.3-0.6,0.4-0.8h-9c-0.9,2.7-1.4,5.5-1.4,8.4
			C-893.5-191.3-893.2-191.3-892.9-191.3z"/>
	</g>
	<g>
		<polygon points="-850.6,-191.3 -842.2,-191.3 -841.3,-198.9 -849.7,-198.9 		"/>
	</g>
	<g>
		<polygon points="-858.2,-198.9 -859,-191.3 -850.6,-191.3 -849.7,-198.9 		"/>
	</g>
	<g>
		<path d="M-740.4-166.6c-2.4,1.9-5.4,3.1-8.6,3.1c0.5,0,0.8,0,0.8,0v0c0,2.9-0.4,5.7-1.2,8.4h0.4c3,0,6-0.6,8.6-1.7
			c0.4-2.2,0.6-4.4,0.6-6.6C-739.8-164.6-740-165.6-740.4-166.6z"/>
	</g>
	<g>
		<path d="M-893.9-163.5c0,0,0.4,0,1,0c-3.3,0-6.3-1.2-8.7-3.1c-0.4,1-0.6,2-0.6,3.1c0,2.2,0.2,4.4,0.6,6.6c2.7,1.2,5.6,1.8,8.7,1.8
			h0.3C-893.4-157.8-893.9-160.6-893.9-163.5L-893.9-163.5z"/>
	</g>
	<g>
		<path d="M-846.4-155.1h88.2h8.8c0.8-2.7,1.2-5.5,1.2-8.4v0c0,0-0.3,0-0.8,0c-7,0-57.1,0-96.4,0L-846.4-155.1z"/>
	</g>
	<g>
		<path d="M-892.9-163.5c-0.6,0-0.9,0-1,0v0c0,2.9,0.4,5.7,1.2,8.4h8.8h20.6l1-8.4C-877.8-163.5-889.6-163.5-892.9-163.5z"/>
	</g>
	<g>
		<path d="M-854.8-155.1h8.4l1-8.4c-2.9,0-5.7,0-8.4,0L-854.8-155.1z"/>
	</g>
	<g>
		<path d="M-863.2-155.1h8.4l1-8.4c-2.9,0-5.7,0-8.4,0L-863.2-155.1z"/>
	</g>
	<g>
		<path d="M-746.5-182.3c1.7,0.9,2.9,2.7,2.9,4.7v0.3c0,2.9-2.5,5.4-5.4,5.4h0.8c3.5,0,6.5,2.2,7.8,5.3c3.1-2.5,5.1-6.4,5.1-10.7
			v-0.3c0-4.2-1.9-8-4.9-10.5C-741-185.2-743.4-182.9-746.5-182.3z"/>
	</g>
	<g>
		<path d="M-893.9-171.9h1c-2.9,0-5.4-2.5-5.4-5.4v-0.3c0-2,1.2-3.8,2.9-4.7c-3-0.6-5.5-2.8-6.4-5.7c-3,2.5-4.8,6.3-4.8,10.4v0.3
			c0,4.3,2,8.1,5,10.6C-900.4-169.7-897.4-171.9-893.9-171.9z"/>
	</g>
	<g>
		<path d="M-748.1-190.5L-748.1-190.5c-0.7,0-52.5,0-94.2,0l-0.9,7.5h94.2c0.9,0,1.7,0.3,2.5,0.7c3-0.6,5.4-2.9,6.3-5.8
			c-2.2-1.8-5-3-8-3.2C-748.2-191-748.1-190.8-748.1-190.5z"/>
	</g>
	<g>
		<path d="M-893.9-190.5c0-0.3,0-0.5,0-0.8c-3,0.2-5.8,1.4-8,3.3c0.9,2.9,3.3,5.2,6.4,5.7c0.8-0.4,1.6-0.7,2.5-0.7h32.9l0.9-7.5
			C-879.2-190.5-893.9-190.5-893.9-190.5L-893.9-190.5z"/>
	</g>
	<g>
		<path d="M-851.6-183h8.4l0.9-7.5c-2.9,0-5.7,0-8.4,0L-851.6-183z"/>
	</g>
	<g>
		<path d="M-860-183h8.4l0.9-7.5c-2.9,0-5.7,0-8.4,0L-860-183z"/>
	</g>
	<g>
		<path d="M-797.5-191.3h-44.7l-0.1,0.8c41.7,0,93.5,0,94.2,0l0,0c0-0.3,0-0.5,0-0.8c-0.3,0-0.5,0-0.8,0H-797.5z"/>
	</g>
	<g>
		<path d="M-893.8-191.3c0,0.3,0,0.5,0,0.8l0,0c0,0,14.7,0,34.8,0l0.1-0.8h-33.9C-893.2-191.3-893.5-191.3-893.8-191.3z"/>
	</g>
	<g>
		<path d="M-850.6-191.3l-0.1,0.8c2.7,0,5.6,0,8.4,0l0.1-0.8H-850.6z"/>
	</g>
	<g>
		<path d="M-859.1-190.5c2.7,0,5.5,0,8.4,0l0.1-0.8h-8.4L-859.1-190.5z"/>
	</g>
	<g>
		<path d="M-748.1-171.9h-0.8h-95.5l-1,8.4c39.3,0,89.4,0,96.4,0c3.3,0,6.3-1.2,8.6-3.1C-741.6-169.7-744.6-171.9-748.1-171.9z"/>
	</g>
	<g>
		<path d="M-893.9-171.9c-3.5,0-6.5,2.2-7.7,5.2c2.4,2,5.4,3.1,8.7,3.1c3.3,0,15.1,0,30.7,0l1-8.4h-31.6H-893.9z"/>
	</g>
	<g>
		<path d="M-853.8-163.5c2.7,0,5.6,0,8.4,0l1-8.4h-8.4L-853.8-163.5z"/>
	</g>
	<g>
		<path d="M-862.3-163.5c2.7,0,5.5,0,8.4,0l1-8.4h-8.4L-862.3-163.5z"/>
	</g>
	<g>
		<path d="M-889.9-239.4c0.6,0,14.5-10.4,14.5-19.1c0-6.4-5.9-7.4-7.6-7.4c-1.7,0-4.7,0.3-6.6,4.3c-1.9-4-5.7-4.2-7.4-4.2
			c-1.7,0-7.6,1-7.6,7.4C-904.5-249.7-890.4-239.4-889.9-239.4z"/>
	</g>
</g>
<g>
	<g>
		<g>
			<path d="M-2098.9-164.8h-46.3c-4.1,0-7.4-3.3-7.4-7.4v-70.3c0-4.1,3.3-7.4,7.4-7.4h46.3c4.1,0,7.4,3.3,7.4,7.4v70.3
				C-2091.4-168.1-2094.7-164.8-2098.9-164.8z M-2137.7-179.6h31.4V-235h-31.4V-179.6z"/>
		</g>
		<g>
			<path d="M-1993.1-129.9c-0.8,0-1.6-0.1-2.3-0.4l-105.7-34.8c-3.1-1-5.1-3.9-5.1-7.1v-70.3c0-3.2,2-6,5-7l105.7-36.6
				c2.3-0.8,4.8-0.4,6.8,1s3.1,3.7,3.1,6.1v141.8c0,2.4-1.1,4.6-3.1,6C-1990.1-130.4-1991.6-129.9-1993.1-129.9z M-2091.4-177.6
				l90.8,29.9v-121l-90.8,31.5V-177.6z"/>
		</g>
		<g>
			<path d="M-1950.5-160.6c-1.5,0-2.9-0.4-4.2-1.3l-21-14.4c-3.4-2.3-4.3-7-1.9-10.3c2.3-3.4,7-4.3,10.3-1.9l21,14.4
				c3.4,2.3,4.3,7,1.9,10.3C-1945.8-161.7-1948.1-160.6-1950.5-160.6z"/>
		</g>
		<g>
			<path d="M-1971.4-226.6c-2.4,0-4.7-1.1-6.1-3.2c-2.3-3.4-1.5-8,1.9-10.4l20.9-14.6c3.4-2.3,8-1.5,10.4,1.9s1.5,8-1.9,10.4
				l-20.9,14.6C-1968.5-227-1970-226.6-1971.4-226.6z"/>
		</g>
		<g>
			<path d="M-1949.3-202.6h-24c-4.1,0-7.4-3.3-7.4-7.4s3.3-7.4,7.4-7.4h24c4.1,0,7.4,3.3,7.4,7.4S-1945.2-202.6-1949.3-202.6z"/>
		</g>
	</g>
	<g>
		<path d="M-2041.2-193.8c-0.6,0-14.6-10.3-14.6-19c0-6.4,5.9-7.4,7.6-7.4c1.7,0,5.5,0.3,7.4,4.2c1.8-4,4.9-4.3,6.6-4.3
			s7.6,1,7.6,7.4C-2026.7-204.3-2040.7-193.8-2041.2-193.8z"/>
	</g>
</g>
<g>
	<g>
		<path d="M-876.3,1070.1c-2.3,0-4.4,0-17.6-10.5c-6.1-4.9-15.5-12.9-25.4-23.1c-24.8-25.5-37.4-48.7-37.4-68.9
			c0-36.8,33.1-44.9,45.9-44.9c15.2,0,27.6,5,36.3,14.3c8.1-9.5,19.1-14.3,32.9-14.3c12.8,0,45.9,8.1,45.9,44.9
			c0,20.2-12.6,43.4-37.4,68.9c-9.9,10.2-19.3,18.2-25.4,23.1C-871.9,1070.1-874,1070.1-876.3,1070.1z M-910.9,939.4
			c-0.3,0-29.2,0.3-29.2,28.2c0,14.9,10.5,33.9,30.5,55c13.6,14.4,27.1,25,33.3,29.4c6.1-4.4,19.6-14.9,33.2-29.4
			c20-21.1,30.5-40.1,30.5-55c0-27.8-28.9-28.2-29.2-28.2c-8.1,0-18.3,1.9-25.1,16.3c-1.4,2.9-4.3,4.8-7.6,4.8
			c-3.2,0-6.2-1.9-7.6-4.8C-887,944.9-896.7,939.4-910.9,939.4z"/>
	</g>
	<g>
		<path d="M-932.7,1070.1c-15.2,0-27.6-5-36.3-14.3c-8.1,9.5-19.1,14.3-32.9,14.3c-12.8,0-45.9-8.1-45.9-44.9
			c0-20.2,12.6-43.4,37.4-68.9c9.9-10.2,19.3-18.2,25.4-23.1c13.2-10.5,15.4-10.5,17.6-10.5s4.4,0,17.6,10.5
			c6.1,4.9,15.5,12.9,25.4,23.1c24.8,25.5,37.4,48.7,37.4,68.9C-886.8,1062-919.9,1070.1-932.7,1070.1z M-969.2,1032.2
			L-969.2,1032.2c3.2,0,6.2,1.9,7.6,4.8c5.1,10.8,14.8,16.3,28.9,16.3c0.3,0,29.2-0.3,29.2-28.2c0-14.9-10.5-33.9-30.5-55
			c-13.6-14.4-27.1-25-33.2-29.4c-6.1,4.4-19.6,14.9-33.3,29.4c-20,21.1-30.5,40.1-30.5,55c0,27.8,28.9,28.2,29.2,28.2
			c8.1,0,18.3-1.9,25.1-16.3C-975.4,1034.1-972.4,1032.2-969.2,1032.2z"/>
	</g>
</g>
<g>
	<path d="M55.2,923.8H-89.5c-14.2,0-25.8-11.6-25.8-25.8v-91.3c0-14.2,11.6-25.8,25.8-25.8H55.2c14.2,0,25.8,11.6,25.8,25.8v91.3
		C80.9,912.3,69.4,923.8,55.2,923.8z M-89.5,797.7c-5,0-9,4.1-9,9v91.3c0,5,4.1,9,9,9H55.2c5,0,9-4.1,9-9v-91.3c0-5-4.1-9-9-9H-89.5
		z"/>
</g>
<g>
	<path d="M-17.4,902c-24.8,0-45-20.2-45-45s20.2-45,45-45s45,20.2,45,45S7.4,902-17.4,902z M-17.4,828.8
		c-15.6,0-28.2,12.7-28.2,28.2c0,15.6,12.7,28.2,28.2,28.2s28.2-12.7,28.2-28.2C10.8,841.5-1.9,828.8-17.4,828.8z"/>
</g>
<g>
	<path d="M-17.4,872.9c-0.6,0-14.6-10.3-14.6-19c0-6.4,5.9-7.4,7.6-7.4c1.7,0,5.5,0.3,7.4,4.2c1.8-4,4.9-4.3,6.6-4.3
		c1.7,0,7.6,1,7.6,7.4C-2.8,862.5-16.8,872.9-17.4,872.9z"/>
</g>
<g>
	<path d="M40.8,834.8c-0.6,0-14.6-10.3-14.6-19c0-6.4,5.9-7.4,7.6-7.4c1.7,0,5.5,0.3,7.4,4.2c1.8-4,4.9-4.3,6.6-4.3
		c1.7,0,7.6,1,7.6,7.4C55.3,824.3,41.3,834.8,40.8,834.8z"/>
</g>
<g>
	<path d="M-38.4,796.5h-41.9c-6.8,0-12.3-5.5-12.3-12.3v-15.1c0-6.8,5.5-12.3,12.3-12.3h41.9c6.8,0,12.3,5.5,12.3,12.3v15.1
		C-26.1,791-31.6,796.5-38.4,796.5z M-79.2,783h39.6v-12.8h-39.6V783z"/>
</g>
</svg>
