<?xml version="1.0" encoding="UTF-8"?>
<svg width="197px" height="159px" viewBox="0 0 197 159" version="1.1" xmlns="http://www.w3.org/2000/svg" xmlns:xlink="http://www.w3.org/1999/xlink">
    <!-- Generator: Sketch 43.2 (39069) - http://www.bohemiancoding.com/sketch -->
    <title>events</title>
    <desc>Created with Sketch.</desc>
    <defs></defs>
    <g id="Page-1" stroke="none" stroke-width="1" fill="none" fill-rule="evenodd">
        <g id="events" fill-rule="nonzero" fill="#000000">
            <path d="M152,130 C151.4,130 137.4,119.7 137.4,111 C137.4,104.6 143.3,103.6 145,103.6 C146.7,103.6 150.5,103.9 152.4,107.8 C154.2,103.8 157.3,103.5 159,103.5 C160.7,103.5 166.6,104.5 166.6,110.9 C166.5,119.6 152.5,130 152,130 Z" id="heart"></path>
            <g id="entry">
                <path d="M188.3,158.4 L8.7,158.4 C4.1,158.4 0.3,154.7 0.3,150 L0.3,9 C0.3,4.4 4,0.6 8.7,0.6 L188.3,0.6 C192.9,0.6 196.7,4.3 196.7,9 L196.7,150 C196.6,154.6 192.9,158.4 188.3,158.4 Z M17,141.6 L179.8,141.6 L179.8,17.4 L17,17.4 L17,141.6 Z" id="Shape"></path>
                <path d="M182.2,50.1 L12.6,50.1 C8,50.1 4.2,46.4 4.2,41.7 C4.2,37 7.9,33.3 12.6,33.3 L182.1,33.3 C186.7,33.3 190.5,37 190.5,41.7 C190.5,46.4 186.8,50.1 182.2,50.1 Z" id="Shape"></path>
            </g>
        </g>
    </g>
</svg>