<?xml version="1.0" encoding="UTF-8"?>
<svg width="226px" height="196px" viewBox="0 0 226 196" version="1.1" xmlns="http://www.w3.org/2000/svg" xmlns:xlink="http://www.w3.org/1999/xlink">
    <!-- Generator: Sketch 43.2 (39069) - http://www.bohemiancoding.com/sketch -->
    <title>food</title>
    <desc>Created with Sketch.</desc>
    <defs></defs>
    <g id="Page-1" stroke="none" stroke-width="1" fill="none" fill-rule="evenodd">
        <g id="food" fill-rule="nonzero" fill="#000000">
            <g id="cup">
                <path d="M58.2,181.4 L28,181.4 L8.5,8.9 L115.3,8.9 L105.6,92.4 L114,92.4 L123.6,9.9 C123.9,7.5 123.1,5.2 121.5,3.4 C119.9,1.6 117.6,0.6 115.3,0.6 L8.5,0.6 C6.1,0.6 3.8,1.6 2.3,3.4 C0.7,5.2 -1.15935039e-13,7.5 0.2,9.9 L19.7,182.4 C20.2,186.6 23.8,189.8 28,189.8 L67.6,189.8 C64.1,187.5 60.9,184.7 58.2,181.4 Z" id="Shape"></path>
                <path d="M35.5,173 L18,17.3 L106.1,17.3 L97.4,92.4 L105.8,92.4 L115.5,8.9 L8.7,8.9 L28.2,181.4 L58.4,181.4 C56.3,178.9 54.6,176 53.3,173 L35.5,173 L35.5,173 Z" id="Shape"></path>
            </g>
            <g id="burger" transform="translate(37.000000, 92.000000)">
                <g id="patty" transform="translate(0.000000, 31.000000)">
                    <path d="M174.5,0 C175,2.4 175.3,4.9 175.3,7.5 C175.3,8.3 175.1,9.1 174.9,9.9 C177.9,12.4 179.8,16.2 179.8,20.4 L179.8,20.7 C179.8,25 177.8,28.9 174.7,31.4 C175.1,32.4 175.3,33.4 175.3,34.5 C175.3,36.8 175.1,39 174.7,41.1 C182.6,37.7 188.2,29.9 188.2,20.7 L188.2,20.4 C188.1,11.2 182.5,3.3 174.5,0 Z" id="Shape"></path>
                    <path d="M13.4,31.4 C10.3,28.9 8.4,25 8.4,20.8 L8.4,20.5 C8.4,16.3 10.3,12.6 13.2,10.1 C13,9.3 12.8,8.5 12.8,7.6 C12.8,5 13.1,2.6 13.5,0.1 C5.6,3.5 0,11.3 0,20.5 L0,20.8 C0,29.9 5.5,37.7 13.4,41.1 C13,39 12.8,36.8 12.8,34.5 C12.7,33.4 13,32.3 13.4,31.4 Z" id="Shape"></path>
                    <path d="M168.5,15.7 C170.2,16.6 171.4,18.4 171.4,20.4 L171.4,20.7 C171.4,23.6 168.9,26.1 166,26.1 L166.8,26.1 C170.3,26.1 173.3,28.3 174.6,31.4 C177.7,28.9 179.7,25 179.7,20.7 L179.7,20.4 C179.7,16.2 177.8,12.4 174.8,9.9 C174,12.8 171.6,15.1 168.5,15.7 Z" id="Shape"></path>
                    <path d="M21.1,26.1 L22.1,26.1 C19.2,26.1 16.7,23.6 16.7,20.7 L16.7,20.4 C16.7,18.4 17.9,16.6 19.6,15.7 C16.6,15.1 14.1,12.9 13.2,10 C10.2,12.5 8.4,16.3 8.4,20.4 L8.4,20.7 C8.4,25 10.4,28.8 13.4,31.3 C14.6,28.3 17.6,26.1 21.1,26.1 Z" id="Shape"></path>
                </g>
                <g id="top-bun" transform="translate(12.000000, 0.000000)">
                    <path d="M125.1,8.7 C138.3,8.7 149.5,17.4 153.4,29.3 L154,29.3 C157,29.3 159.9,29.9 162.5,31 C159,13.6 143.6,0.4 125.1,0.4 L65.1,0.4 L64.1,8.8 L125.1,8.8 L125.1,8.7 Z" id="Shape"></path>
                    <path d="M1.5,31 C4.1,29.9 7,29.3 10.1,29.3 L10.6,29.3 C14.5,17.4 25.7,8.7 38.9,8.7 L47.4,8.7 L48.4,0.3 L39,0.3 C20.4,0.4 5,13.6 1.5,31 Z" id="Shape"></path>
                    <polygon id="Shape" points="55.8 8.7 64.2 8.7 65.1 0.4 56.7 0.4"></polygon>
                    <polygon id="Shape" points="47.3 8.7 55.8 8.7 56.7 0.4 48.3 0.4"></polygon>
                    <path d="M125.1,17.1 C133.6,17.1 141,22.1 144.4,29.3 L153.4,29.3 C149.5,17.4 138.3,8.7 125.1,8.7 L64.2,8.7 L63.2,17.1 L125.1,17.1 Z" id="Shape"></path>
                    <path d="M10.6,29.3 L19.6,29.3 C23,22.1 30.4,17.1 38.9,17.1 L46.4,17.1 L47.4,8.7 L38.9,8.7 C25.7,8.7 14.5,17.4 10.6,29.3 Z" id="Shape"></path>
                    <polygon id="Shape" points="63.2 17.1 64.2 8.7 55.8 8.7 54.8 17.1"></polygon>
                    <polygon id="Shape" points="46.4 17.1 54.8 17.1 55.8 8.7 47.3 8.7"></polygon>
                    <path d="M61.7,30.1 L144.8,30.1 C144.7,29.8 144.5,29.5 144.4,29.3 L61.8,29.3 L61.7,30.1 Z" id="Shape"></path>
                    <path d="M44.8,30.1 L44.9,29.3 L19.5,29.3 C19.4,29.6 19.2,29.9 19.1,30.1 L44.8,30.1 Z" id="Shape"></path>
                    <polygon id="Shape" points="53.4 29.3 53.3 30.1 61.7 30.1 61.8 29.3"></polygon>
                    <polygon id="Shape" points="53.3 30.1 53.4 29.3 44.9 29.3 44.8 30.1"></polygon>
                    <path d="M153.4,29.3 C154.3,32 154.8,34.8 154.8,37.7 C157.8,37.9 160.6,39 162.8,40.9 C163,40.1 163.2,39.3 163.2,38.5 C163.2,35.9 162.9,33.4 162.4,31 C159.8,29.9 156.9,29.3 153.9,29.3 L153.4,29.3 Z" id="Shape"></path>
                    <path d="M1.2,41 C3.4,39.1 6.2,37.9 9.2,37.7 C9.3,34.8 9.8,31.9 10.6,29.3 L10.1,29.3 C7.1,29.3 4.2,29.9 1.5,31 C1,33.4 0.8,35.9 0.8,38.5 C0.7,39.4 0.9,40.2 1.2,41 Z" id="Shape"></path>
                    <path d="M144.8,30.1 L61.7,30.1 L60.8,37.6 L105.5,37.6 L154,37.6 L154.8,37.6 C154.7,34.7 154.2,31.9 153.4,29.2 L144.4,29.2 C144.5,29.6 144.7,29.9 144.8,30.1 Z" id="Shape"></path>
                    <path d="M10.1,37.7 L44,37.7 L44.9,30.2 L19.2,30.2 C19.3,29.9 19.5,29.6 19.6,29.4 L10.6,29.4 C9.7,32.1 9.2,34.9 9.2,37.8 C9.5,37.7 9.8,37.7 10.1,37.7 Z" id="Shape"></path>
                    <polygon id="Shape" points="52.4 37.7 60.8 37.7 61.7 30.1 53.3 30.1"></polygon>
                    <polygon id="Shape" points="44.8 30.1 44 37.7 52.4 37.7 53.3 30.1"></polygon>
                    <path d="M154.9,38.5 L154.9,38.5 L60.7,38.5 L59.8,46 L154,46 C154.9,46 155.7,46.3 156.5,46.7 C159.5,46.1 161.9,43.8 162.8,40.9 C160.6,39.1 157.8,37.9 154.8,37.7 C154.8,38 154.9,38.2 154.9,38.5 Z" id="Shape"></path>
                    <path d="M9.1,38.5 L9.1,37.7 C6.1,37.9 3.3,39.1 1.1,41 C2,43.9 4.4,46.2 7.5,46.7 C8.3,46.3 9.1,46 10,46 L42.9,46 L43.8,38.5 L9.1,38.5 L9.1,38.5 Z" id="Shape"></path>
                    <path d="M51.4,46 L59.8,46 L60.7,38.5 L52.3,38.5 L51.4,46 Z" id="Shape"></path>
                    <path d="M43,46 L51.4,46 L52.3,38.5 L43.9,38.5 L43,46 Z" id="Shape"></path>
                    <path d="M105.5,37.7 L60.8,37.7 L60.7,38.5 L154.9,38.5 L154.9,38.5 L154.9,37.7 L154.1,37.7 L105.5,37.7 Z" id="Shape"></path>
                    <path d="M52.4,37.7 L52.3,38.5 L60.7,38.5 L60.8,37.7 L52.4,37.7 Z" id="Shape"></path>
                    <path d="M43.9,38.5 L52.3,38.5 L52.4,37.7 L44,37.7 L43.9,38.5 Z" id="Shape"></path>
                    <path d="M9.2,37.7 L9.2,38.5 L9.2,38.5 L44,38.5 L44.1,37.7 L10.2,37.7 L9.2,37.7 Z" id="Shape"></path>
                </g>
                <g id="bottom-bun" transform="translate(12.000000, 57.000000)">
                    <path d="M153.6,16.9 C150,29.2 138.5,38.3 125.1,38.3 L52.3,38.3 C50.8,39.9 48.7,40.8 46.4,40.8 L18.7,40.8 C24.6,44.5 31.5,46.6 38.9,46.6 L125.1,46.6 C143.9,46.6 159.5,33 162.6,15.1 C160,16.2 157,16.8 154,16.8 L153.6,16.8 L153.6,16.9 Z" id="Shape"></path>
                    <path d="M10.1,16.9 C7,16.9 4.1,16.3 1.4,15.1 C1.9,18.2 2.9,21.3 4.1,24.1 L13.6,24.1 C12.2,21.9 11.1,19.5 10.4,16.9 L10.1,16.9 Z" id="Shape"></path>
                    <path d="M52.3,38.3 L38.8,38.3 C32.2,38.3 26.1,36.1 21.2,32.5 L9.2,32.5 C11.9,35.8 15.1,38.6 18.7,40.9 L46.4,40.9 C48.7,40.8 50.8,39.8 52.3,38.3 Z" id="Shape"></path>
                    <path d="M13.6,24 L4.1,24 C5.5,27 7.2,29.8 9.2,32.4 L21.2,32.4 C18.2,30.1 15.6,27.3 13.6,24 Z" id="Shape"></path>
                    <path d="M125.1,29.9 L55.1,29.9 L54.7,33.4 C54.5,35.3 53.6,37 52.3,38.3 L125.1,38.3 C138.6,38.3 150,29.2 153.6,16.9 L144.8,16.9 C141.5,24.5 133.9,29.9 125.1,29.9 Z" id="Shape"></path>
                    <path d="M19.2,16.9 L10.4,16.9 C11.2,19.5 12.3,21.9 13.6,24.1 L24.2,24.1 C22.1,22 20.3,19.6 19.2,16.9 Z" id="Shape"></path>
                    <path d="M55.1,29.9 L46.7,29.9 L46.4,32.4 L21.3,32.4 C26.2,36.1 32.3,38.2 38.9,38.2 L52.4,38.2 C53.7,36.9 54.5,35.2 54.8,33.3 L55.1,29.9 Z" id="Shape"></path>
                    <path d="M46.7,29.9 L38.9,29.9 C33.2,29.9 28.1,27.7 24.2,24.1 L13.6,24.1 C15.6,27.4 18.2,30.2 21.3,32.5 L46.4,32.5 L46.7,29.9 Z" id="Shape"></path>
                    <path d="M162.6,5.4 C160.2,7.3 157.2,8.5 154,8.5 L154.8,8.5 L154.8,8.5 C154.8,11.4 154.4,14.2 153.6,16.9 L154,16.9 C157,16.9 160,16.3 162.6,15.2 C163,13 163.2,10.8 163.2,8.6 C163.2,7.4 163,6.4 162.6,5.4 Z" id="Shape"></path>
                    <path d="M9.1,8.5 L10.1,8.5 C6.8,8.5 3.8,7.3 1.4,5.4 C1,6.4 0.8,7.4 0.8,8.5 C0.8,10.7 1,12.9 1.4,15.1 C4.1,16.3 7,16.9 10.1,16.9 L10.4,16.9 C9.6,14.2 9.1,11.4 9.1,8.5 L9.1,8.5 Z" id="Shape"></path>
                    <path d="M56.6,16.9 L144.8,16.9 L153.6,16.9 C154.4,14.2 154.8,11.4 154.8,8.5 L154.8,8.5 L154,8.5 L57.6,8.5 L56.6,16.9 Z" id="Shape"></path>
                    <path d="M10.1,8.5 L9.1,8.5 L9.1,8.5 C9.1,11.4 9.5,14.2 10.3,16.9 L19.1,16.9 L39.7,16.9 L40.7,8.5 L10.1,8.5 Z" id="Shape"></path>
                    <path d="M48.2,16.9 L56.6,16.9 L57.6,8.5 L49.2,8.5 L48.2,16.9 Z" id="Shape"></path>
                    <path d="M39.8,16.9 L48.2,16.9 L49.2,8.5 L40.8,8.5 L39.8,16.9 Z" id="Shape"></path>
                    <path d="M154.9,0.1 L154.1,0.1 L58.6,0.1 L57.6,8.5 L154,8.5 C157.3,8.5 160.3,7.3 162.6,5.4 C161.4,2.3 158.4,0.1 154.9,0.1 Z" id="Shape"></path>
                    <path d="M9.1,0.1 C5.6,0.1 2.6,2.3 1.4,5.3 C3.8,7.3 6.8,8.4 10.1,8.4 L40.8,8.4 L41.8,0 L10.2,0 L9.1,0 L9.1,0.1 Z" id="Shape"></path>
                    <path d="M49.2,8.5 L57.6,8.5 L58.6,0.1 L50.2,0.1 L49.2,8.5 Z" id="Shape"></path>
                    <path d="M40.7,8.5 L49.1,8.5 L50.1,0.1 L41.7,0.1 L40.7,8.5 Z" id="Shape"></path>
                </g>
            </g>
            <path d="M62.1,81.6 C62.7,81.6 76.6,71.2 76.6,62.5 C76.6,56.1 70.7,55.1 69,55.1 C67.3,55.1 64.3,55.4 62.4,59.4 C60.5,55.4 56.7,55.2 55,55.2 C53.3,55.2 47.4,56.2 47.4,62.6 C47.5,71.3 61.6,81.6 62.1,81.6 Z" id="heart"></path>
        </g>
    </g>
</svg>