<?xml version="1.0" encoding="UTF-8"?>
<svg width="35px" height="36px" viewBox="0 0 35 36" version="1.1" xmlns="http://www.w3.org/2000/svg" xmlns:xlink="http://www.w3.org/1999/xlink">
    <!-- Generator: Sketch 43.2 (39069) - http://www.bohemiancoding.com/sketch -->
    <title>instagram</title>
    <desc>Created with Sketch.</desc>
    <defs></defs>
    <g id="mc-icons" stroke="none" stroke-width="1" fill="none" fill-rule="evenodd">
        <g id="instagram" fill="#060100">
            <path d="M25.7176712,18.2843285 C25.7176712,22.7558379 22.0811478,26.3946428 17.607357,26.3946428 C13.1358476,26.3946428 9.49932408,22.7558379 9.49932408,18.2843285 C9.49932408,17.0523821 9.77765273,15.8843143 10.2681499,14.8371598 L0.348699455,14.8371598 L0.348699455,26.5246816 C0.348699455,31.2311734 4.18142181,35.0638957 8.89019499,35.0638957 L25.9800302,35.0638957 C30.6842406,35.0638957 34.516963,31.2311734 34.516963,26.5246816 L34.516963,14.8371598 L24.9488454,14.8371598 C25.441624,15.8843143 25.7176712,17.0523821 25.7176712,18.2843285" id="Fill-5"></path>
            <path d="M20.9769587,18.2843285 C20.9769587,16.4272833 19.4666836,14.9170082 17.607357,14.9170082 C15.7525931,14.9170082 14.2400366,16.4272833 14.2400366,18.2843285 C14.2400366,20.1390924 15.7525931,21.6516489 17.607357,21.6516489 C19.4666836,21.6516489 20.9769587,20.1390924 20.9769587,18.2843285" id="Fill-7"></path>
            <path d="M29.4356401,8.87887349 C29.4356401,9.40131005 29.0090216,9.82792855 28.486585,9.82792855 L25.5572901,9.82792855 C25.0348535,9.82792855 24.608235,9.40131005 24.608235,8.87887349 L24.608235,5.94501578 C24.608235,5.42486061 25.0348535,4.99824211 25.5572901,4.99824211 L28.486585,4.99824211 C29.0090216,4.99824211 29.4356401,5.42486061 29.4356401,5.94501578 L29.4356401,8.87887349 Z M25.9793458,0.757152308 L8.88951058,0.757152308 C4.1807374,0.757152308 0.350296423,4.58987466 0.350296423,9.29636646 L0.350296423,11.6758483 L12.9161504,11.6758483 C14.2416336,10.7290746 15.8614151,10.1724173 17.6066726,10.1724173 C19.3564928,10.1724173 20.9762743,10.7290746 22.3017574,11.6758483 L28.6736584,11.6758483 L34.5162786,11.6758483 L34.5162786,9.29636646 C34.5162786,4.58987466 30.6858376,0.757152308 25.9793458,0.757152308 L25.9793458,0.757152308 Z" id="Fill-9"></path>
        </g>
    </g>
</svg>