<svg xmlns="http://www.w3.org/2000/svg" viewBox="0 0 507.62 44.54"><defs><style>.cls-1{font-size:39.21px;font-family:Brocha-Semibold, Brocha;font-weight:700;letter-spacing:0.16em;}.cls-1,.cls-7{fill:#131f6b;}.cls-2{letter-spacing:0.26em;}.cls-3{letter-spacing:0.15em;}.cls-4{letter-spacing:0.16em;}.cls-5{letter-spacing:0.15em;}.cls-6{letter-spacing:0.21em;}</style></defs><title>logo_1</title><g id="Layer_2" data-name="Layer 2"><g id="logo"><text class="cls-1" transform="translate(0 32.35)">M <tspan class="cls-2" x="54.07" y="0"> </tspan><tspan x="71.48" y="0">RKET </tspan><tspan class="cls-3" x="212.01" y="0">C</tspan><tspan class="cls-4" x="243.38" y="0">OLL</tspan><tspan class="cls-5" x="336.19" y="0">E</tspan><tspan class="cls-4" x="366.89" y="0">CT</tspan><tspan class="cls-6" x="429.12" y="0">I</tspan><tspan class="cls-4" x="449.7" y="0" xml:space="preserve">  E</tspan></text><path id="heart-2" class="cls-7" d="M459.15,33.21c-.55,0-14.6-10.42-14.6-19.07,0-6.39,5.94-7.4,7.6-7.4A7.69,7.69,0,0,1,459.54,11a6.75,6.75,0,0,1,6.62-4.28c1.66,0,7.6,1,7.6,7.4C473.75,22.79,459.71,33.21,459.15,33.21Z"/><path id="heart-1" class="cls-7" d="M52,6.74c.55,0,14.6,10.42,14.6,19.07,0,6.39-5.94,7.4-7.6,7.4a7.69,7.69,0,0,1-7.39-4.28A6.75,6.75,0,0,1,45,33.21c-1.66,0-7.6-1-7.6-7.4C37.4,17.16,51.45,6.74,52,6.74Z"/></g></g></svg>