<?xml version="1.0" encoding="UTF-8"?>
<svg width="179px" height="214px" viewBox="0 0 179 214" version="1.1" xmlns="http://www.w3.org/2000/svg" xmlns:xlink="http://www.w3.org/1999/xlink">
    <!-- Generator: Sketch 43.2 (39069) - http://www.bohemiancoding.com/sketch -->
    <title>music</title>
    <desc>Created with Sketch.</desc>
    <defs></defs>
    <g id="Page-1" stroke="none" stroke-width="1" fill="none" fill-rule="evenodd">
        <g id="music" fill-rule="nonzero" fill="#000000">
            <path d="M44.9,213.1 C42.3,213.1 40.5,212.5 33.5,207 C30.4,204.5 25.6,200.4 20.5,195.2 C7.4,181.7 0.8,169.2 0.8,158.1 C0.8,148.6 5,140.8 12.5,136.1 C17.8,132.8 23.8,131.7 27.7,131.7 C34.8,131.7 40.8,133.6 45.6,137.2 C49.5,134 54.8,131.7 62,131.7 C65.9,131.7 72,132.9 77.2,136.1 C84.8,140.8 88.9,148.6 88.9,158.1 C88.9,169.3 82.3,181.7 69.2,195.2 C64.1,200.4 59.3,204.5 56.2,207 C49.3,212.5 47.4,213.1 44.9,213.1 Z M27.7,148.3 C26.8,148.3 23.8,148.7 21.3,150.2 C19.5,151.3 17.5,153.2 17.5,158 C17.5,164.1 22.3,172.6 31.1,182 C36.3,187.5 41.5,192 45,194.7 C54,187.7 72.3,170.2 72.3,158.1 C72.3,153.3 70.3,151.4 68.5,150.3 C66,148.7 62.9,148.4 62.1,148.4 C58.4,148.4 55.7,149.3 53.5,154.1 C52.1,157 49.2,158.9 45.9,158.9 C42.6,158.9 39.7,157 38.3,154.1 C37.1,151.5 34.8,148.3 27.7,148.3 Z" id="note2"></path>
            <path d="M134.6,185.5 C132,185.5 130.2,184.9 123.2,179.4 C120.1,176.9 115.3,172.8 110.2,167.6 C97.1,154.1 90.5,141.6 90.5,130.5 C90.5,121 94.7,113.2 102.2,108.5 C107.5,105.2 113.5,104.1 117.4,104.1 C124.5,104.1 130.5,106 135.3,109.6 C139.2,106.4 144.5,104.1 151.7,104.1 C155.6,104.1 161.7,105.3 166.9,108.5 C174.5,113.2 178.6,121 178.6,130.5 C178.6,141.7 172,154.1 158.9,167.6 C153.8,172.8 149,176.9 145.9,179.4 C139,184.9 137.2,185.5 134.6,185.5 Z M117.5,120.7 C116.6,120.7 113.6,121.1 111.1,122.6 C109.3,123.7 107.3,125.6 107.3,130.4 C107.3,136.5 112.1,145 120.9,154.4 C126.1,159.9 131.3,164.4 134.8,167.1 C143.8,160.1 162.1,142.6 162.1,130.5 C162.1,125.7 160.1,123.8 158.3,122.7 C155.8,121.1 152.7,120.8 151.9,120.8 C148.2,120.8 145.5,121.7 143.3,126.5 C141.9,129.4 139,131.3 135.7,131.3 C132.4,131.3 129.5,129.4 128.1,126.5 C126.9,123.9 124.5,120.7 117.5,120.7 Z" id="note1"></path>
            <g id="stems" transform="translate(71.000000, 0.000000)">
                <path d="M9.3,155.7 L9.3,38.1" id="Shape"></path>
                <path d="M9.3,164.1 C4.7,164.1 0.9,160.4 0.9,155.7 L0.9,38.1 C0.9,33.5 4.6,29.7 9.3,29.7 C14,29.7 17.7,33.4 17.7,38.1 L17.7,155.7 C17.7,160.3 14,164.1 9.3,164.1 Z" id="Shape"></path>
                <path d="M99.4,127.2 L99.4,9.6" id="Shape"></path>
                <path d="M99.4,135.6 C94.8,135.6 91,131.9 91,127.2 L91,9.6 C91,5 94.7,1.2 99.4,1.2 C104.1,1.2 107.8,4.9 107.8,9.6 L107.8,127.2 C107.7,131.8 104,135.6 99.4,135.6 Z" id="Shape"></path>
                <path d="M10.1,37.7 L99.4,9" id="Shape"></path>
                <path d="M10.1,46.1 C6.6,46.1 3.3,43.8 2.1,40.3 C0.7,35.9 3.1,31.2 7.5,29.8 L96.8,1.1 C101.2,-0.3 105.9,2.1 107.3,6.5 C108.7,10.9 106.3,15.6 101.9,17 L12.6,45.7 C11.8,45.9 10.9,46.1 10.1,46.1 Z" id="Shape"></path>
                <path d="M10.1,74.3 L99.4,45.6" id="Shape"></path>
                <path d="M10.1,82.7 C6.6,82.7 3.3,80.4 2.1,76.9 C0.7,72.5 3.1,67.8 7.5,66.4 L96.8,37.7 C101.2,36.3 105.9,38.7 107.3,43.1 C108.7,47.5 106.3,52.2 101.9,53.6 L12.6,82.3 C11.8,82.5 10.9,82.7 10.1,82.7 Z" id="Shape"></path>
            </g>
        </g>
    </g>
</svg>