<?xml version="1.0" encoding="utf-8"?>
<!-- Generator: Adobe Illustrator 21.1.0, SVG Export Plug-In . SVG Version: 6.00 Build 0)  -->
<svg version="1.1" id="Layer_1" xmlns="http://www.w3.org/2000/svg" xmlns:xlink="http://www.w3.org/1999/xlink" x="0px" y="0px"
	 viewBox="0 0 318.8 303.6" style="enable-background:new 0 0 318.8 303.6;" xml:space="preserve">
<path d="M235.4,97.5V61.5c0-0.1,0-0.2,0-0.3c0-0.9-0.1-1.9-0.4-2.8c-1.4-4.4-6.1-6.8-10.5-5.4l-89.3,28.7c-0.6,0.2-1.1,0.4-1.6,0.7
	c-2.9,1.3-5,4.2-5,7.6v95.4c-3.7-1.4-7.3-1.9-10-1.9c-7.2,0-12.5,2.3-16.4,5.5c-4.7-3.6-10.8-5.5-17.9-5.5c-3.9,0-10,1.2-15.2,4.4
	c-7.6,4.7-11.7,12.5-11.7,22c0,11.2,6.6,23.6,19.7,37.1c5.1,5.2,9.9,9.3,13,11.8c7,5.6,8.8,6.1,11.4,6.1s4.4-0.6,11.4-6.1
	c3.1-2.5,7.9-6.6,13-11.8c13.1-13.5,19.7-26,19.7-37.1c0-1.4-0.1-2.7-0.3-4v-73.4l73.3-23.5v48.9c-3.8-1.4-7.5-2-10.2-2
	c-7.2,0-12.5,2.3-16.4,5.5c-4.7-3.6-10.8-5.5-17.9-5.5c-3.9,0-10,1.2-15.2,4.4c-7.6,4.7-11.7,12.5-11.7,22
	c0,11.2,6.6,23.6,19.7,37.1c5.1,5.2,9.9,9.3,13,11.8c7,5.6,8.8,6.1,11.4,6.1c2.6,0,4.4-0.6,11.4-6.1c3.1-2.5,7.9-6.6,13-11.8
	c13.1-13.5,19.7-26,19.7-37.1c0-0.7,0-1.4-0.1-2.1c0-0.4,0.1-0.7,0.1-1.1V97.5C235.4,97.5,235.4,97.5,235.4,97.5z M145.4,96
	l73.3-23.5v19L145.4,115V96z M101.6,246.6c-3.4-2.7-8.7-7.1-13.9-12.7c-8.7-9.4-13.6-17.9-13.6-24c0-4.8,2-6.7,3.8-7.8
	c2.5-1.6,5.6-1.9,6.4-1.9c7.1,0,9.4,3.2,10.5,5.7c1.4,2.9,4.3,4.8,7.6,4.8s6.2-1.9,7.6-4.8c2.2-4.7,4.9-5.7,8.6-5.7
	c0.9,0,3.9,0.4,6.4,1.9c1.4,0.9,2.9,2.2,3.6,5.1v0.4c0,0.7,0.1,1.4,0.3,2.1c0,0.1,0,0.2,0,0.3C128.9,222.1,110.6,239.6,101.6,246.6z
	 M191.3,219c-3.4-2.7-8.7-7.1-13.9-12.7c-8.7-9.4-13.6-17.9-13.6-24c0-4.8,2-6.7,3.8-7.8c2.5-1.6,5.6-1.9,6.4-1.9
	c7.1,0,9.4,3.2,10.5,5.7c1.4,2.9,4.3,4.8,7.6,4.8s6.2-1.9,7.6-4.8c2.2-4.7,4.9-5.7,8.6-5.7c0.9,0,3.9,0.4,6.4,1.9
	c1.8,1.1,3.8,3,3.8,7.8C218.7,194.5,200.4,212,191.3,219z"/>
<g>
	<g>
		<g>
			<path d="M-2098.9-164.8h-46.3c-4.1,0-7.4-3.3-7.4-7.4v-70.3c0-4.1,3.3-7.4,7.4-7.4h46.3c4.1,0,7.4,3.3,7.4,7.4v70.3
				C-2091.4-168.1-2094.7-164.8-2098.9-164.8z M-2137.7-179.6h31.4V-235h-31.4V-179.6z"/>
		</g>
		<g>
			<path d="M-1993.1-129.9c-0.8,0-1.6-0.1-2.3-0.4l-105.7-34.8c-3.1-1-5.1-3.9-5.1-7.1v-70.3c0-3.2,2-6,5-7l105.7-36.6
				c2.3-0.8,4.8-0.4,6.8,1s3.1,3.7,3.1,6.1v141.8c0,2.4-1.1,4.6-3.1,6C-1990.1-130.4-1991.6-129.9-1993.1-129.9z M-2091.4-177.6
				l90.8,29.9v-121l-90.8,31.5V-177.6z"/>
		</g>
		<g>
			<path d="M-1950.5-160.6c-1.5,0-2.9-0.4-4.2-1.3l-21-14.4c-3.4-2.3-4.3-7-1.9-10.3c2.3-3.4,7-4.3,10.3-1.9l21,14.4
				c3.4,2.3,4.3,7,1.9,10.3C-1945.8-161.7-1948.1-160.6-1950.5-160.6z"/>
		</g>
		<g>
			<path d="M-1971.4-226.6c-2.4,0-4.7-1.1-6.1-3.2c-2.3-3.4-1.5-8,1.9-10.4l20.9-14.6c3.4-2.3,8-1.5,10.4,1.9s1.5,8-1.9,10.4
				l-20.9,14.6C-1968.5-227-1970-226.6-1971.4-226.6z"/>
		</g>
		<g>
			<path d="M-1949.3-202.6h-24c-4.1,0-7.4-3.3-7.4-7.4s3.3-7.4,7.4-7.4h24c4.1,0,7.4,3.3,7.4,7.4S-1945.2-202.6-1949.3-202.6z"/>
		</g>
	</g>
	<g>
		<path d="M-2041.2-193.8c-0.6,0-14.6-10.3-14.6-19c0-6.4,5.9-7.4,7.6-7.4c1.7,0,5.5,0.3,7.4,4.2c1.8-4,4.9-4.3,6.6-4.3
			s7.6,1,7.6,7.4C-2026.7-204.3-2040.7-193.8-2041.2-193.8z"/>
	</g>
</g>
</svg>
