<?xml version="1.0" encoding="utf-8"?>
<!-- Generator: Adobe Illustrator 21.1.0, SVG Export Plug-In . SVG Version: 6.00 Build 0)  -->
<svg version="1.1" id="Layer_1" xmlns="http://www.w3.org/2000/svg" xmlns:xlink="http://www.w3.org/1999/xlink" x="0px" y="0px"
	 viewBox="0 0 318.8 303.6" style="enable-background:new 0 0 318.8 303.6;" xml:space="preserve">
<g>
	<path d="M216.7,73.6c-2-1.4-4.5-1.8-6.8-1l-104.5,36.2h-45c-4.1,0-7.4,3.3-7.4,7.4v70.3c0,4.1,3.3,7.4,7.4,7.4h45.1l104.6,34.5
		c0.8,0.3,1.5,0.4,2.3,0.4c1.5,0,3.1-0.5,4.4-1.4c1.9-1.4,3.1-3.6,3.1-6V79.7C219.9,77.3,218.7,75,216.7,73.6z M67.9,123.8h31.4
		v55.4H67.9V123.8z M205,211.2l-90.8-29.9v-59.6L205,90.2V211.2z"/>
	<path d="M259.3,184.7l-21-14.4c-3.4-2.3-8-1.5-10.3,1.9c-2.3,3.4-1.5,8,1.9,10.3l21,14.4c1.3,0.9,2.8,1.3,4.2,1.3
		c2.4,0,4.7-1.1,6.1-3.2C263.5,191.7,262.7,187,259.3,184.7z"/>
	<path d="M234.1,132.3c1.5,0,3-0.4,4.2-1.3l20.9-14.6c3.4-2.3,4.2-7,1.9-10.4s-7-4.2-10.4-1.9l-20.9,14.6c-3.4,2.3-4.2,7-1.9,10.4
		C229.4,131.2,231.8,132.3,234.1,132.3z"/>
	<path d="M232.3,156.2h24c4.1,0,7.4-3.3,7.4-7.4s-3.3-7.4-7.4-7.4h-24c-4.1,0-7.4,3.3-7.4,7.4S228.1,156.2,232.3,156.2z"/>
	<path d="M164.3,165c0.6,0,14.5-10.4,14.5-19.1c0-6.4-5.9-7.4-7.6-7.4s-4.7,0.3-6.6,4.3c-1.9-4-5.7-4.2-7.4-4.2
		c-1.7,0-7.6,1-7.6,7.4C149.7,154.7,163.8,165,164.3,165z"/>
</g>
</svg>
