<?xml version="1.0" encoding="utf-8"?>
<!-- Generator: Adobe Illustrator 21.1.0, SVG Export Plug-In . SVG Version: 6.00 Build 0)  -->
<svg version="1.1" id="Layer_1" xmlns="http://www.w3.org/2000/svg" xmlns:xlink="http://www.w3.org/1999/xlink" x="0px" y="0px"
	 viewBox="0 0 318.8 303.6" style="enable-background:new 0 0 318.8 303.6;" xml:space="preserve">
<g>
	<g>
		<path d="M-1488.1-109.9c-2.6,0-4.4-0.6-11.4-6.1c-3.1-2.5-7.9-6.6-13-11.8c-13.1-13.5-19.7-26-19.7-37.1c0-9.5,4.2-17.3,11.7-22
			c5.3-3.3,11.3-4.4,15.2-4.4c7.1,0,13.1,1.9,17.9,5.5c3.9-3.2,9.2-5.5,16.4-5.5c3.9,0,10,1.2,15.2,4.4c7.6,4.7,11.7,12.5,11.7,22
			c0,11.2-6.6,23.6-19.7,37.1c-5.1,5.2-9.9,9.3-13,11.8C-1483.7-110.5-1485.6-109.9-1488.1-109.9z M-1484.5-125.8L-1484.5-125.8
			L-1484.5-125.8z M-1505.3-174.7c-0.9,0-3.9,0.4-6.4,1.9c-1.8,1.1-3.8,3-3.8,7.8c0,6.1,4.8,14.6,13.6,24c5.2,5.5,10.4,10,13.9,12.7
			c9-7,27.3-24.5,27.3-36.6c0-4.8-2-6.7-3.8-7.8c-2.5-1.6-5.6-1.9-6.4-1.9c-3.7,0-6.4,0.9-8.6,5.7c-1.4,2.9-4.3,4.8-7.6,4.8
			s-6.2-1.9-7.6-4.8C-1495.9-171.5-1498.2-174.7-1505.3-174.7z"/>
	</g>
	<g>
		<path d="M-1398.4-137.5c-2.6,0-4.4-0.6-11.4-6.1c-3.1-2.5-7.9-6.6-13-11.8c-13.1-13.5-19.7-26-19.7-37.1c0-9.5,4.2-17.3,11.7-22
			c5.3-3.3,11.3-4.4,15.2-4.4c7.1,0,13.1,1.9,17.9,5.5c3.9-3.2,9.2-5.5,16.4-5.5c3.9,0,10,1.2,15.2,4.4c7.6,4.7,11.7,12.5,11.7,22
			c0,11.2-6.6,23.6-19.7,37.1c-5.1,5.2-9.9,9.3-13,11.8C-1394-138.1-1395.8-137.5-1398.4-137.5z M-1394.7-153.4L-1394.7-153.4
			L-1394.7-153.4z M-1415.5-202.3c-0.9,0-3.9,0.4-6.4,1.9c-1.8,1.1-3.8,3-3.8,7.8c0,6.1,4.8,14.6,13.6,24c5.2,5.5,10.4,10,13.9,12.7
			c9-7,27.3-24.5,27.3-36.6c0-4.8-2-6.7-3.8-7.8c-2.5-1.6-5.6-1.9-6.4-1.9c-3.7,0-6.4,0.9-8.6,5.7c-1.4,2.9-4.3,4.8-7.6,4.8
			s-6.2-1.9-7.6-4.8C-1406.1-199.1-1408.5-202.3-1415.5-202.3z"/>
	</g>
	<g>
		<line x1="-1452.7" y1="-167.3" x2="-1452.7" y2="-284.9"/>
		<path d="M-1452.7-158.9c-4.6,0-8.4-3.7-8.4-8.4v-117.6c0-4.6,3.7-8.4,8.4-8.4s8.4,3.7,8.4,8.4v117.6
			C-1444.3-162.7-1448-158.9-1452.7-158.9z"/>
	</g>
	<g>
		<line x1="-1362.6" y1="-195.8" x2="-1362.6" y2="-313.4"/>
		<path d="M-1362.6-187.4c-4.6,0-8.4-3.7-8.4-8.4v-117.6c0-4.6,3.7-8.4,8.4-8.4s8.4,3.7,8.4,8.4v117.6
			C-1354.3-191.2-1358-187.4-1362.6-187.4z"/>
	</g>
	<g>
		<line x1="-1451.9" y1="-285.3" x2="-1362.6" y2="-314"/>
		<path d="M-1451.9-276.9c-3.5,0-6.8-2.3-8-5.8c-1.4-4.4,1-9.1,5.4-10.5l89.3-28.7c4.4-1.4,9.1,1,10.5,5.4c1.4,4.4-1,9.1-5.4,10.5
			l-89.3,28.7C-1450.2-277.1-1451.1-276.9-1451.9-276.9z"/>
	</g>
	<g>
		<line x1="-1451.9" y1="-248.7" x2="-1362.6" y2="-277.4"/>
		<path d="M-1451.9-240.3c-3.5,0-6.8-2.3-8-5.8c-1.4-4.4,1-9.1,5.4-10.5l89.3-28.7c4.4-1.4,9.1,1,10.5,5.4c1.4,4.4-1,9.1-5.4,10.5
			l-89.3,28.7C-1450.2-240.5-1451.1-240.3-1451.9-240.3z"/>
	</g>
</g>
<g>
	<g>
		<g>
			<path d="M-2098.9-164.8h-46.3c-4.1,0-7.4-3.3-7.4-7.4v-70.3c0-4.1,3.3-7.4,7.4-7.4h46.3c4.1,0,7.4,3.3,7.4,7.4v70.3
				C-2091.4-168.1-2094.7-164.8-2098.9-164.8z M-2137.7-179.6h31.4V-235h-31.4V-179.6z"/>
		</g>
		<g>
			<path d="M-1993.1-129.9c-0.8,0-1.6-0.1-2.3-0.4l-105.7-34.8c-3.1-1-5.1-3.9-5.1-7.1v-70.3c0-3.2,2-6,5-7l105.7-36.6
				c2.3-0.8,4.8-0.4,6.8,1s3.1,3.7,3.1,6.1v141.8c0,2.4-1.1,4.6-3.1,6C-1990.1-130.4-1991.6-129.9-1993.1-129.9z M-2091.4-177.6
				l90.8,29.9v-121l-90.8,31.5V-177.6z"/>
		</g>
		<g>
			<path d="M-1950.5-160.6c-1.5,0-2.9-0.4-4.2-1.3l-21-14.4c-3.4-2.3-4.3-7-1.9-10.3c2.3-3.4,7-4.3,10.3-1.9l21,14.4
				c3.4,2.3,4.3,7,1.9,10.3C-1945.8-161.7-1948.1-160.6-1950.5-160.6z"/>
		</g>
		<g>
			<path d="M-1971.4-226.6c-2.4,0-4.7-1.1-6.1-3.2c-2.3-3.4-1.5-8,1.9-10.4l20.9-14.6c3.4-2.3,8-1.5,10.4,1.9s1.5,8-1.9,10.4
				l-20.9,14.6C-1968.5-227-1970-226.6-1971.4-226.6z"/>
		</g>
		<g>
			<path d="M-1949.3-202.6h-24c-4.1,0-7.4-3.3-7.4-7.4s3.3-7.4,7.4-7.4h24c4.1,0,7.4,3.3,7.4,7.4S-1945.2-202.6-1949.3-202.6z"/>
		</g>
	</g>
	<g>
		<path d="M-2041.2-193.8c-0.6,0-14.6-10.3-14.6-19c0-6.4,5.9-7.4,7.6-7.4c1.7,0,5.5,0.3,7.4,4.2c1.8-4,4.9-4.3,6.6-4.3
			s7.6,1,7.6,7.4C-2026.7-204.3-2040.7-193.8-2041.2-193.8z"/>
	</g>
</g>
<g>
	<g>
		<path d="M-876.3,1070.1c-2.3,0-4.4,0-17.6-10.5c-6.1-4.9-15.5-12.9-25.4-23.1c-24.8-25.5-37.4-48.7-37.4-68.9
			c0-36.8,33.1-44.9,45.9-44.9c15.2,0,27.6,5,36.3,14.3c8.1-9.5,19.1-14.3,32.9-14.3c12.8,0,45.9,8.1,45.9,44.9
			c0,20.2-12.6,43.4-37.4,68.9c-9.9,10.2-19.3,18.2-25.4,23.1C-871.9,1070.1-874,1070.1-876.3,1070.1z M-910.9,939.4
			c-0.3,0-29.2,0.3-29.2,28.2c0,14.9,10.5,33.9,30.5,55c13.6,14.4,27.1,25,33.3,29.4c6.1-4.4,19.6-14.9,33.2-29.4
			c20-21.1,30.5-40.1,30.5-55c0-27.8-28.9-28.2-29.2-28.2c-8.1,0-18.3,1.9-25.1,16.3c-1.4,2.9-4.3,4.8-7.6,4.8
			c-3.2,0-6.2-1.9-7.6-4.8C-887,944.9-896.7,939.4-910.9,939.4z"/>
	</g>
	<g>
		<path d="M-932.7,1070.1c-15.2,0-27.6-5-36.3-14.3c-8.1,9.5-19.1,14.3-32.9,14.3c-12.8,0-45.9-8.1-45.9-44.9
			c0-20.2,12.6-43.4,37.4-68.9c9.9-10.2,19.3-18.2,25.4-23.1c13.2-10.5,15.4-10.5,17.6-10.5s4.4,0,17.6,10.5
			c6.1,4.9,15.5,12.9,25.4,23.1c24.8,25.5,37.4,48.7,37.4,68.9C-886.8,1062-919.9,1070.1-932.7,1070.1z M-969.2,1032.2
			L-969.2,1032.2c3.2,0,6.2,1.9,7.6,4.8c5.1,10.8,14.8,16.3,28.9,16.3c0.3,0,29.2-0.3,29.2-28.2c0-14.9-10.5-33.9-30.5-55
			c-13.6-14.4-27.1-25-33.2-29.4c-6.1,4.4-19.6,14.9-33.3,29.4c-20,21.1-30.5,40.1-30.5,55c0,27.8,28.9,28.2,29.2,28.2
			c8.1,0,18.3-1.9,25.1-16.3C-975.4,1034.1-972.4,1032.2-969.2,1032.2z"/>
	</g>
</g>
<g>
	<path d="M230.3,96h-81.3V84.1c0-6.8-5.5-12.3-12.3-12.3H94.8c-6.8,0-12.3,5.5-12.3,12.3v12.1C69.8,97.8,60,108.7,60,121.8v91.3
		c0,14.2,11.6,25.8,25.8,25.8h144.6c14.2,0,25.8-11.6,25.8-25.8v-91.3C256.1,107.6,244.5,96,230.3,96z M135.6,85.3V96H96V85.3H135.6
		z M239.4,213.1c0,5-4.1,9-9,9H85.7c-5,0-9-4.1-9-9v-91.3c0-5,4.1-9,9-9h144.6c5,0,9,4.1,9,9V213.1z"/>
	<path d="M157.7,127.1c-24.8,0-45,20.2-45,45s20.2,45,45,45s45-20.2,45-45S182.5,127.1,157.7,127.1z M157.7,200.3
		c-15.6,0-28.2-12.7-28.2-28.2c0-15.6,12.7-28.2,28.2-28.2s28.2,12.7,28.2,28.2C186,187.7,173.3,200.3,157.7,200.3z"/>
	<path d="M164.7,161.5c-1.7,0-4.7,0.3-6.6,4.3c-1.9-4-5.7-4.2-7.4-4.2c-1.7,0-7.6,1-7.6,7.4c0,8.6,14.1,19,14.6,19
		c0.6,0,14.5-10.4,14.5-19.1C172.3,162.5,166.4,161.5,164.7,161.5z"/>
	<path d="M222.9,123.4c-1.7,0-4.7,0.3-6.6,4.3c-1.9-4-5.7-4.2-7.4-4.2c-1.7,0-7.6,1-7.6,7.4c0,8.6,14.1,19,14.6,19
		c0.6,0,14.5-10.4,14.5-19.1C230.4,124.4,224.5,123.4,222.9,123.4z"/>
</g>
</svg>
