<?xml version="1.0" encoding="UTF-8"?>
<svg width="197px" height="168px" viewBox="0 0 197 168" version="1.1" xmlns="http://www.w3.org/2000/svg" xmlns:xlink="http://www.w3.org/1999/xlink">
    <!-- Generator: Sketch 43.2 (39069) - http://www.bohemiancoding.com/sketch -->
    <title>photobooth</title>
    <desc>Created with Sketch.</desc>
    <defs></defs>
    <g id="Page-1" stroke="none" stroke-width="1" fill="none" fill-rule="evenodd">
        <g id="photobooth" fill-rule="nonzero" fill="#000000">
            <path d="M77.6,40.5 L35.7,40.5 C28.9,40.5 23.4,35 23.4,28.2 L23.4,13.1 C23.4,6.3 28.9,0.8 35.7,0.8 L77.6,0.8 C84.4,0.8 89.9,6.3 89.9,13.1 L89.9,28.2 C89.9,35 84.4,40.5 77.6,40.5 Z M36.8,27 L76.4,27 L76.4,14.2 L36.8,14.2 L36.8,27 Z" id="flash"></path>
            <path d="M171.2,167.8 L26.5,167.8 C12.3,167.8 0.7,156.2 0.7,142 L0.7,50.7 C0.7,36.5 12.3,24.9 26.5,24.9 L171.2,24.9 C185.4,24.9 197,36.5 197,50.7 L197,142 C196.9,156.3 185.4,167.8 171.2,167.8 Z M26.5,41.7 C21.5,41.7 17.5,45.8 17.5,50.7 L17.5,142 C17.5,147 21.6,151 26.5,151 L171.2,151 C176.2,151 180.2,146.9 180.2,142 L180.2,50.7 C180.2,45.7 176.1,41.7 171.2,41.7 L26.5,41.7 Z" id="body"></path>
            <path d="M98.6,146 C73.8,146 53.6,125.8 53.6,101 C53.6,76.2 73.8,56 98.6,56 C123.4,56 143.6,76.2 143.6,101 C143.6,125.8 123.4,146 98.6,146 Z M98.6,72.8 C83,72.8 70.4,85.5 70.4,101 C70.4,116.6 83.1,129.2 98.6,129.2 C114.1,129.2 126.8,116.5 126.8,101 C126.8,85.5 114.1,72.8 98.6,72.8 Z" id="lens"></path>
            <path d="M98.6,116.9 C98,116.9 84,106.6 84,97.9 C84,91.5 89.9,90.5 91.6,90.5 C93.3,90.5 97.1,90.8 99,94.7 C100.8,90.7 103.9,90.4 105.6,90.4 C107.3,90.4 113.2,91.4 113.2,97.8 C113.2,106.5 99.2,116.9 98.6,116.9 Z" id="iris"></path>
            <path d="M156.8,78.8 C156.2,78.8 142.2,68.5 142.2,59.8 C142.2,53.4 148.1,52.4 149.8,52.4 C151.5,52.4 155.3,52.7 157.2,56.6 C159,52.6 162.1,52.3 163.8,52.3 C165.5,52.3 171.4,53.3 171.4,59.7 C171.3,68.3 157.3,78.8 156.8,78.8 Z" id="viewfinder"></path>
        </g>
    </g>
</svg>