<?xml version="1.0" encoding="UTF-8"?>
<svg width="34px" height="38px" viewBox="0 0 34 38" version="1.1" xmlns="http://www.w3.org/2000/svg" xmlns:xlink="http://www.w3.org/1999/xlink">
    <!-- Generator: Sketch 43.2 (39069) - http://www.bohemiancoding.com/sketch -->
    <title>search</title>
    <desc>Created with Sketch.</desc>
    <defs></defs>
    <g id="mc-icons" stroke="none" stroke-width="1" fill="none" fill-rule="evenodd">
        <g id="search" fill="#060100">
            <path d="M15.1711086,6.6587023 C10.257011,6.6587023 6.26002916,10.6556842 6.26002916,15.5720632 C6.26002916,20.4861607 10.257011,24.4831426 15.1711086,24.4831426 C20.0852062,24.4831426 24.0821881,20.4861607 24.0821881,15.5720632 C24.0821881,10.6556842 20.0852062,6.6587023 15.1711086,6.6587023 M15.1711086,30.594966 C6.8874093,30.594966 0.145924445,23.8557625 0.145924445,15.5720632 C0.145924445,7.28608244 6.8874093,0.546878969 15.1711086,0.546878969 C23.454808,0.546878969 30.1962928,7.28608244 30.1962928,15.5720632 C30.1962928,23.8557625 23.454808,30.594966 15.1711086,30.594966" id="Fill-11"></path>
            <path d="M30.1983461,37.724514 C29.3451091,37.724514 28.4987162,37.3708997 27.8941499,36.6796408 L20.0005669,27.6385226 C18.8918151,26.3677926 19.0218539,24.4377431 20.2925839,23.3267099 C21.5655952,22.2179581 23.4956447,22.3502783 24.6043965,23.6187269 L32.4979795,32.6598451 C33.6067313,33.9305751 33.4766925,35.8606246 32.2059625,36.9693764 C31.6264914,37.4758433 30.9101374,37.724514 30.1983461,37.724514" id="Fill-13"></path>
        </g>
    </g>
</svg>