<?xml version="1.0" encoding="UTF-8"?>
<svg width="43px" height="36px" viewBox="0 0 43 36" version="1.1" xmlns="http://www.w3.org/2000/svg" xmlns:xlink="http://www.w3.org/1999/xlink">
    <!-- Generator: Sketch 43.2 (39069) - http://www.bohemiancoding.com/sketch -->
    <title>twitter</title>
    <desc>Created with Sketch.</desc>
    <defs></defs>
    <g id="mc-icons" stroke="none" stroke-width="1" fill="none" fill-rule="evenodd">
        <path d="M37.9727045,9.30252619 C37.9909555,9.67439152 38.0000811,10.0416941 38.0000811,10.4204035 C38.0000811,21.8660988 29.2874819,35.0638957 13.3565889,35.0638957 C8.46302373,35.0638957 3.91394731,33.6311876 0.0812249552,31.1718574 C0.758795515,31.2494244 1.44777299,31.2904893 2.14587599,31.2904893 C6.20673658,31.2904893 9.93679673,29.910253 12.9003124,27.5878058 C9.11093632,27.5125201 5.91243825,25.0098437 4.81281196,21.5718005 C5.34209267,21.6676186 5.88278028,21.7269345 6.44171896,21.7269345 C7.23335864,21.7269345 7.99762173,21.6174281 8.72081993,21.4235106 C4.76262155,20.6227454 1.77401066,17.1253863 1.77401066,12.9299241 L1.77401066,12.8204178 C2.94435981,13.4706118 4.27668711,13.8584468 5.7002697,13.901793 C3.37554108,12.3527344 1.8470149,9.69720534 1.8470149,6.69490616 C1.8470149,5.10706404 2.27591478,3.61960275 3.01964543,2.33974725 C7.28811181,7.5823639 13.673701,11.0272513 20.8714624,11.389991 C20.7231725,10.7557668 20.6478869,10.0941659 20.6478869,9.41659531 C20.6478869,4.63253651 24.5239555,0.758749276 29.3080143,0.758749276 C31.7970025,0.758749276 34.0510082,1.80818516 35.6274434,3.48956395 C37.6008392,3.10172895 39.455603,2.38081213 41.1301377,1.38612942 C40.4799437,3.41427834 39.1111143,5.10706404 37.3225105,6.17931375 C39.0746122,5.97170796 40.7423027,5.50402457 42.295924,4.81960987 C41.1347004,6.55574184 39.6677716,8.07970525 37.9727045,9.30252619" id="twitter" fill="#060100"></path>
    </g>
</svg>