<?xml version="1.0" encoding="utf-8"?>
<!-- Generator: Adobe Illustrator 21.1.0, SVG Export Plug-In . SVG Version: 6.00 Build 0)  -->
<svg version="1.1" id="Layer_1" xmlns="http://www.w3.org/2000/svg" xmlns:xlink="http://www.w3.org/1999/xlink" x="0px" y="0px"
	 viewBox="0 0 318.8 303.6" style="enable-background:new 0 0 318.8 303.6;" xml:space="preserve">
<g>
	<g>
		<path d="M-1488.1-109.9c-2.6,0-4.4-0.6-11.4-6.1c-3.1-2.5-7.9-6.6-13-11.8c-13.1-13.5-19.7-26-19.7-37.1c0-9.5,4.2-17.3,11.7-22
			c5.3-3.3,11.3-4.4,15.2-4.4c7.1,0,13.1,1.9,17.9,5.5c3.9-3.2,9.2-5.5,16.4-5.5c3.9,0,10,1.2,15.2,4.4c7.6,4.7,11.7,12.5,11.7,22
			c0,11.2-6.6,23.6-19.7,37.1c-5.1,5.2-9.9,9.3-13,11.8C-1483.7-110.5-1485.6-109.9-1488.1-109.9z M-1484.5-125.8L-1484.5-125.8
			L-1484.5-125.8z M-1505.3-174.7c-0.9,0-3.9,0.4-6.4,1.9c-1.8,1.1-3.8,3-3.8,7.8c0,6.1,4.8,14.6,13.6,24c5.2,5.5,10.4,10,13.9,12.7
			c9-7,27.3-24.5,27.3-36.6c0-4.8-2-6.7-3.8-7.8c-2.5-1.6-5.6-1.9-6.4-1.9c-3.7,0-6.4,0.9-8.6,5.7c-1.4,2.9-4.3,4.8-7.6,4.8
			s-6.2-1.9-7.6-4.8C-1495.9-171.5-1498.2-174.7-1505.3-174.7z"/>
	</g>
	<g>
		<path d="M-1398.4-137.5c-2.6,0-4.4-0.6-11.4-6.1c-3.1-2.5-7.9-6.6-13-11.8c-13.1-13.5-19.7-26-19.7-37.1c0-9.5,4.2-17.3,11.7-22
			c5.3-3.3,11.3-4.4,15.2-4.4c7.1,0,13.1,1.9,17.9,5.5c3.9-3.2,9.2-5.5,16.4-5.5c3.9,0,10,1.2,15.2,4.4c7.6,4.7,11.7,12.5,11.7,22
			c0,11.2-6.6,23.6-19.7,37.1c-5.1,5.2-9.9,9.3-13,11.8C-1394-138.1-1395.8-137.5-1398.4-137.5z M-1394.7-153.4L-1394.7-153.4
			L-1394.7-153.4z M-1415.5-202.3c-0.9,0-3.9,0.4-6.4,1.9c-1.8,1.1-3.8,3-3.8,7.8c0,6.1,4.8,14.6,13.6,24c5.2,5.5,10.4,10,13.9,12.7
			c9-7,27.3-24.5,27.3-36.6c0-4.8-2-6.7-3.8-7.8c-2.5-1.6-5.6-1.9-6.4-1.9c-3.7,0-6.4,0.9-8.6,5.7c-1.4,2.9-4.3,4.8-7.6,4.8
			s-6.2-1.9-7.6-4.8C-1406.1-199.1-1408.5-202.3-1415.5-202.3z"/>
	</g>
	<g>
		<line x1="-1452.7" y1="-167.3" x2="-1452.7" y2="-284.9"/>
		<path d="M-1452.7-158.9c-4.6,0-8.4-3.7-8.4-8.4v-117.6c0-4.6,3.7-8.4,8.4-8.4s8.4,3.7,8.4,8.4v117.6
			C-1444.3-162.7-1448-158.9-1452.7-158.9z"/>
	</g>
	<g>
		<line x1="-1362.6" y1="-195.8" x2="-1362.6" y2="-313.4"/>
		<path d="M-1362.6-187.4c-4.6,0-8.4-3.7-8.4-8.4v-117.6c0-4.6,3.7-8.4,8.4-8.4s8.4,3.7,8.4,8.4v117.6
			C-1354.3-191.2-1358-187.4-1362.6-187.4z"/>
	</g>
	<g>
		<line x1="-1451.9" y1="-285.3" x2="-1362.6" y2="-314"/>
		<path d="M-1451.9-276.9c-3.5,0-6.8-2.3-8-5.8c-1.4-4.4,1-9.1,5.4-10.5l89.3-28.7c4.4-1.4,9.1,1,10.5,5.4c1.4,4.4-1,9.1-5.4,10.5
			l-89.3,28.7C-1450.2-277.1-1451.1-276.9-1451.9-276.9z"/>
	</g>
	<g>
		<line x1="-1451.9" y1="-248.7" x2="-1362.6" y2="-277.4"/>
		<path d="M-1451.9-240.3c-3.5,0-6.8-2.3-8-5.8c-1.4-4.4,1-9.1,5.4-10.5l89.3-28.7c4.4-1.4,9.1,1,10.5,5.4c1.4,4.4-1,9.1-5.4,10.5
			l-89.3,28.7C-1450.2-240.5-1451.1-240.3-1451.9-240.3z"/>
	</g>
</g>
<g>
	<g>
		<g>
			<path d="M-2098.9-164.8h-46.3c-4.1,0-7.4-3.3-7.4-7.4v-70.3c0-4.1,3.3-7.4,7.4-7.4h46.3c4.1,0,7.4,3.3,7.4,7.4v70.3
				C-2091.4-168.1-2094.7-164.8-2098.9-164.8z M-2137.7-179.6h31.4V-235h-31.4V-179.6z"/>
		</g>
		<g>
			<path d="M-1993.1-129.9c-0.8,0-1.6-0.1-2.3-0.4l-105.7-34.8c-3.1-1-5.1-3.9-5.1-7.1v-70.3c0-3.2,2-6,5-7l105.7-36.6
				c2.3-0.8,4.8-0.4,6.8,1s3.1,3.7,3.1,6.1v141.8c0,2.4-1.1,4.6-3.1,6C-1990.1-130.4-1991.6-129.9-1993.1-129.9z M-2091.4-177.6
				l90.8,29.9v-121l-90.8,31.5V-177.6z"/>
		</g>
		<g>
			<path d="M-1950.5-160.6c-1.5,0-2.9-0.4-4.2-1.3l-21-14.4c-3.4-2.3-4.3-7-1.9-10.3c2.3-3.4,7-4.3,10.3-1.9l21,14.4
				c3.4,2.3,4.3,7,1.9,10.3C-1945.8-161.7-1948.1-160.6-1950.5-160.6z"/>
		</g>
		<g>
			<path d="M-1971.4-226.6c-2.4,0-4.7-1.1-6.1-3.2c-2.3-3.4-1.5-8,1.9-10.4l20.9-14.6c3.4-2.3,8-1.5,10.4,1.9s1.5,8-1.9,10.4
				l-20.9,14.6C-1968.5-227-1970-226.6-1971.4-226.6z"/>
		</g>
		<g>
			<path d="M-1949.3-202.6h-24c-4.1,0-7.4-3.3-7.4-7.4s3.3-7.4,7.4-7.4h24c4.1,0,7.4,3.3,7.4,7.4S-1945.2-202.6-1949.3-202.6z"/>
		</g>
	</g>
	<g>
		<path d="M-2041.2-193.8c-0.6,0-14.6-10.3-14.6-19c0-6.4,5.9-7.4,7.6-7.4c1.7,0,5.5,0.3,7.4,4.2c1.8-4,4.9-4.3,6.6-4.3
			s7.6,1,7.6,7.4C-2026.7-204.3-2040.7-193.8-2041.2-193.8z"/>
	</g>
</g>
<path d="M226.6,93c-11.4,0-20.5,4-27.1,11.8c-7.1-7.7-17.4-11.8-29.9-11.8c-6.5,0-19.4,2.5-28.3,11.7c-1.3-1.1-2.5-2.1-3.6-3
	C126.7,93,124.9,93,123.1,93c-1.9,0-3.6,0-14.5,8.7c-5.1,4-12.8,10.6-21,19c-20.5,21.1-30.8,40.2-30.8,56.9c0,30.4,27.3,37,37.8,37
	c11.4,0,20.5-4,27.1-11.8c7.1,7.7,17.4,11.8,29.9,11.8c6.5,0,19.4-2.5,28.3-11.7c1.3,1.1,2.5,2.1,3.6,3c10.9,8.7,12.7,8.7,14.5,8.7
	c1.9,0,3.6,0,14.5-8.7c5.1-4,12.8-10.6,21-19c20.5-21.1,30.8-40.2,30.8-56.9C264.5,99.7,237.2,93,226.6,93z M175.5,180.3
	c-1.6-1.6-3.2-3.2-4.8-4.9c-16.5-17.4-25.2-33.1-25.2-45.4c0-1,0.1-1.9,0.1-2.8c1.6,1.6,3.2,3.2,4.8,4.9
	c16.5,17.4,25.2,33.1,25.2,45.4C175.7,178.6,175.6,179.5,175.5,180.3z M151.6,200.8c-11.7,0-19.7-4.5-23.9-13.4
	c-1.1-2.4-3.6-4-6.2-4c-2.7,0-5.1,1.5-6.2,4c-5.6,11.9-14,13.4-20.7,13.4c-0.2,0-24.1-0.3-24.1-23.2c0-12.3,8.7-28,25.2-45.4
	c11.2-11.9,22.4-20.6,27.4-24.2c2.4,1.7,6.3,4.7,10.8,8.5c-1.4,3.9-2.2,8.4-2.2,13.5c0,16.7,10.4,35.8,30.8,56.9
	c2.4,2.4,4.7,4.7,6.9,6.8C162.5,200.7,151.8,200.8,151.6,200.8z M225.5,175.4c-11.2,11.9-22.4,20.6-27.4,24.2
	c-2.4-1.7-6.3-4.7-10.8-8.5c1.4-3.9,2.2-8.4,2.2-13.5c0-16.7-10.4-35.8-30.8-56.9c-2.4-2.4-4.7-4.7-6.9-6.8
	c7.1-6.9,17.8-7.1,17.9-7.1c11.7,0,19.7,4.5,23.9,13.4c1.1,2.4,3.6,4,6.2,4c2.7,0,5.1-1.5,6.2-4c5.6-11.9,14-13.4,20.7-13.4
	c0.2,0,24.1,0.3,24.1,23.2C250.7,142.3,242,158,225.5,175.4z"/>
</svg>
