<?xml version="1.0" encoding="UTF-8"?>
<svg width="253px" height="149px" viewBox="0 0 253 149" version="1.1" xmlns="http://www.w3.org/2000/svg" xmlns:xlink="http://www.w3.org/1999/xlink">
    <!-- Generator: Sketch 43.2 (39069) - http://www.bohemiancoding.com/sketch -->
    <title>volunteers</title>
    <desc>Created with Sketch.</desc>
    <defs></defs>
    <g id="Page-1" stroke="none" stroke-width="1" fill="none" fill-rule="evenodd">
        <g id="volunteers" fill-rule="nonzero" fill="#000000">
            <path d="M171.7,148.1 C169.4,148.1 167.3,148.1 154.1,137.6 C148,132.7 138.6,124.7 128.7,114.5 C103.9,89 91.3,65.8 91.3,45.6 C91.3,8.8 124.4,0.7 137.2,0.7 C152.4,0.7 164.8,5.7 173.5,15 C181.6,5.5 192.6,0.7 206.4,0.7 C219.2,0.7 252.3,8.8 252.3,45.6 C252.3,65.8 239.7,89 214.9,114.5 C205,124.7 195.6,132.7 189.5,137.6 C176.1,148.1 174,148.1 171.7,148.1 Z M137.1,17.4 C136.8,17.4 107.9,17.7 107.9,45.6 C107.9,60.5 118.4,79.5 138.4,100.6 C152,115 165.5,125.6 171.7,130 C177.8,125.6 191.3,115.1 204.9,100.6 C224.9,79.5 235.4,60.5 235.4,45.6 C235.4,17.8 206.5,17.4 206.2,17.4 C198.1,17.4 187.9,19.3 181.1,33.7 C179.7,36.6 176.8,38.5 173.5,38.5 C170.3,38.5 167.3,36.6 165.9,33.7 C161,22.9 151.3,17.4 137.1,17.4 Z" id="heart2"></path>
            <path d="M115.3,148.1 C100.1,148.1 87.7,143.1 79,133.8 C70.9,143.3 59.9,148.1 46.1,148.1 C33.3,148.1 0.2,140 0.2,103.2 C0.2,83 12.8,59.8 37.6,34.3 C47.5,24.1 56.9,16.1 63,11.2 C76.2,0.7 78.4,0.7 80.6,0.7 C82.8,0.7 85,0.7 98.2,11.2 C104.3,16.1 113.7,24.1 123.6,34.3 C148.4,59.8 161,83 161,103.2 C161.2,140 128.1,148.1 115.3,148.1 Z M78.8,110.2 L78.8,110.2 C82,110.2 85,112.1 86.4,115 C91.5,125.8 101.2,131.3 115.3,131.3 C115.6,131.3 144.5,131 144.5,103.1 C144.5,88.2 134,69.2 114,48.1 C100.4,33.7 86.9,23.1 80.8,18.7 C74.7,23.1 61.2,33.6 47.5,48.1 C27.5,69.2 17,88.2 17,103.1 C17,130.9 45.9,131.3 46.2,131.3 C54.3,131.3 64.5,129.4 71.3,115 C72.6,112.1 75.6,110.2 78.8,110.2 Z" id="heart1"></path>
        </g>
    </g>
</svg>